<svg xmlns="http://www.w3.org/2000/svg" xmlns:xlink="http://www.w3.org/1999/xlink" viewBox="0 0 500 500"><defs><clipPath id="freepik--clip-path--inject-16"><path d="M197.07,236.37s6.19-6.2,8.25-11.1-.77-10.84-5.67-16.78-16.51-21.17-16.51-21.17-4.65-12.65-13.67-10.59-11.35,24.53-11.1,30.72S167.14,228.11,170,239s-3.26,24.07-4.1,37.4c18.46.95,35.09-5.21,41.26-7.85C203,255.51,197.07,236.37,197.07,236.37Z" style="fill:#fff;stroke:#263238;stroke-linecap:round;stroke-linejoin:round"></path></clipPath><clipPath id="freepik--clip-path-2--inject-16"><path d="M172.05,182.67s-7.48-.26-10.06,6.46,2.06,26.33,2.83,31.49,5.68,25.56,7,30.21,2.58,12.39,4.12,12.39,16,3.1,31.47,1.29,36.12-3.36,36.12-3.36l16.76.52c2-1.11-10.59-8.24-21.92-5.94-5,1-30.44-3.87-36.11-4.39S189.07,248,189.07,248s-6.45-33.82-6.45-36.66-2.06-14.2-2.06-14.2" style="fill:#fff;stroke:#263238;stroke-linecap:round;stroke-linejoin:round"></path></clipPath></defs><g id="freepik--background-simple--inject-16"><path d="M335.58,104.45s-52.13-29.16-111.94-7-97.93,79.8-130,125.71-27.19,99,10.43,129.24,71.72.9,130.33,9.16,72.88,19.26,126.89-5.45,76-101,47.66-165S335.58,104.45,335.58,104.45Z" style="fill:#92E3A9"></path><path d="M335.58,104.45s-52.13-29.16-111.94-7-97.93,79.8-130,125.71-27.19,99,10.43,129.24,71.72.9,130.33,9.16,72.88,19.26,126.89-5.45,76-101,47.66-165S335.58,104.45,335.58,104.45Z" style="fill:#fff;opacity:0.8"></path><rect x="238" y="112.97" width="54.47" height="88.51" style="fill:#fff"></rect><rect x="238" y="222.53" width="54.47" height="88.51" style="fill:#fff"></rect><rect x="172.39" y="112.97" width="54.47" height="88.51" style="fill:#fff"></rect><rect x="172.39" y="222.53" width="54.47" height="88.51" style="fill:#fff"></rect><rect x="106.78" y="112.97" width="54.47" height="88.51" style="fill:#fff"></rect><rect x="106.78" y="222.53" width="54.47" height="88.51" style="fill:#fff"></rect></g><g id="freepik--Mirror--inject-16"><path d="M338.9,110.5v164h75.51v-164Zm68.08,156H346.32V118.56H407Z" style="fill:#92E3A9"></path><path d="M354.37,112.35a5.57,5.57,0,1,0-5.57,5.58A5.57,5.57,0,0,0,354.37,112.35Z" style="fill:#fff"></path><circle cx="374.8" cy="112.35" r="5.57" style="fill:#fff"></circle><circle cx="400.79" cy="112.35" r="5.57" style="fill:#fff"></circle><path d="M354.37,270.19a5.57,5.57,0,1,0-5.57,5.57A5.57,5.57,0,0,0,354.37,270.19Z" style="fill:#fff"></path><circle cx="374.8" cy="270.19" r="5.57" style="fill:#fff"></circle><circle cx="400.79" cy="270.19" r="5.57" style="fill:#fff"></circle><path d="M415,132.78a5.57,5.57,0,1,0-5.57,5.57A5.57,5.57,0,0,0,415,132.78Z" style="fill:#fff"></path><circle cx="409.46" cy="160.63" r="5.57" style="fill:#fff"></circle><circle cx="409.46" cy="188.49" r="5.57" style="fill:#fff"></circle><circle cx="409.46" cy="216.34" r="5.57" style="fill:#fff"></circle><path d="M415,244.19a5.57,5.57,0,1,0-5.57,5.58A5.58,5.58,0,0,0,415,244.19Z" style="fill:#fff"></path><path d="M348.18,132.78a5.57,5.57,0,1,0-5.57,5.57A5.57,5.57,0,0,0,348.18,132.78Z" style="fill:#fff"></path><circle cx="342.61" cy="160.63" r="5.57" style="fill:#fff"></circle><circle cx="342.61" cy="188.49" r="5.57" style="fill:#fff"></circle><circle cx="342.61" cy="216.34" r="5.57" style="fill:#fff"></circle><path d="M348.18,244.19a5.57,5.57,0,1,0-5.57,5.58A5.57,5.57,0,0,0,348.18,244.19Z" style="fill:#fff"></path></g><g id="freepik--Plant--inject-16"><path d="M120.41,353.28a18.82,18.82,0,0,0-4.28,8.9l-8.6,4.83v-22.8l.16.24,13.7-10c1.73.27,8.38,1,14.44-2.24,7-3.79,12.17-16.77,12.17-16.77s-16.77-1.89-22.45,5.14a19.51,19.51,0,0,0-4.66,13.12l-13.36,9.78V326.62a18.62,18.62,0,0,0,10.18-12.29c2.43-9.47-10.55-28.13-10.55-28.13s-13.53,19.2-10.82,28.94a16.26,16.26,0,0,0,10.28,11.47v36.5l-9.64-8c.22-1.92.39-7.94-5-14-6.49-7.3-23.8-6.76-23.8-6.76s7.3,14.61,13.52,19.48c5.44,4.25,12.94,2.52,14.75,2l10.14,8.46v11.09H91.54l6.15,38.45h18.46l6.15-38.45H107.53V368l9.44-5.29c2.3.63,8.72,1.95,14.8-1.09,7.57-3.79,13.8-11.9,13.8-11.9S127.44,345.16,120.41,353.28Z" style="fill:#92E3A9"></path><path d="M120.41,353.28a18.82,18.82,0,0,0-4.28,8.9l-8.6,4.83v-22.8l.16.24,13.7-10c1.73.27,8.38,1,14.44-2.24,7-3.79,12.17-16.77,12.17-16.77s-16.77-1.89-22.45,5.14a19.51,19.51,0,0,0-4.66,13.12l-13.36,9.78V326.62a18.62,18.62,0,0,0,10.18-12.29c2.43-9.47-10.55-28.13-10.55-28.13s-13.53,19.2-10.82,28.94a16.26,16.26,0,0,0,10.28,11.47v36.5l-9.64-8c.22-1.92.39-7.94-5-14-6.49-7.3-23.8-6.76-23.8-6.76s7.3,14.61,13.52,19.48c5.44,4.25,12.94,2.52,14.75,2l10.14,8.46v11.09H91.54l6.15,38.45h18.46l6.15-38.45H107.53V368l9.44-5.29c2.3.63,8.72,1.95,14.8-1.09,7.57-3.79,13.8-11.9,13.8-11.9S127.44,345.16,120.41,353.28Z" style="fill:#fff;opacity:0.5"></path></g><g id="freepik--Characters--inject-16"><polygon points="306.65 404.34 306 415.47 303.6 415.47 301.85 406.09 306.65 404.34" style="fill:#263238;stroke:#263238;stroke-linecap:round;stroke-linejoin:round"></polygon><path d="M277,412.85s-2,1.53.22,2.18,10,0,12.44,0,5.67-5,9.16-7,8.73-3.05,9.82-3.93.44-2.18-2.83-2.18-8.73,2.18-12.66,5.24a28.45,28.45,0,0,1-11.78,4.8A24.72,24.72,0,0,0,277,412.85Z" style="fill:#263238;stroke:#263238;stroke-linecap:round;stroke-linejoin:round"></path><path d="M312.32,411.32s.12,4.19,1.75,4.66,4.54,1.75,7.46-1.17c1.63-1.63,2.56-4.66,2.56-10a89.58,89.58,0,0,0-.46-9.32A19.15,19.15,0,0,0,312.32,411.32Z" style="fill:#263238;stroke:#263238;stroke-linecap:round;stroke-linejoin:round"></path><path d="M301,165.84s-12-1.31-17.9,1.09-16.8,13.53-17.89,14.62-17.67,11.35-17.67,11.35l-17.46-23.78s0-7.64-4.36-10.91-8.95-3.5-10.7-1.31-3.05,7.2-2.83,8.29,4.58,2,4.58,2,3.27,4.37,4.8,5.24,3.93,2,3.93,2,6.11,17.24,10.25,23.79,5,9.16,7.2,9.82,24-11.57,27.5-13.1,10.25-5,10.25-5S277,198.79,277,201s3.5,7.2,5,8.95,2,5.24,2,5.24-1.09,6.54-1.53,11.78-7,10-9.17,27.93-.87,31.2,3.71,46.26S282,319,282,319s.66,15.93,2.84,26.41,9.06,41.24,8.85,44.73-10.16,17-12.56,18.76-4.8,3.28-4.15,3.93,8.73.22,12-.44,5.89-5.89,9.81-7.63,7.42-2,7.42-5.24-3-6.11-3.27-11.78S302.5,350,302.5,350s12.88,35.78,14,40.58-4.8,16.81-4.15,20.73,3.93,3.93,8.29.88,3.5-22,2.84-27.5-4.58-29.24-5-44.29-6.33-23.57-6.33-23.57,13.1-29.68,14.84-41.89A85.27,85.27,0,0,0,323,236.54a43.83,43.83,0,0,1-2.19-21.38c0-1.53,8.29-15.5,10.7-27.06s2.18-14-1.53-18.55S301,165.84,301,165.84Z" style="fill:#fff;stroke:#263238;stroke-linecap:round;stroke-linejoin:round"></path><path d="M284.17,406.52s2.84,1.09,3.5,6.11c0,0,1.09.44,3.27-.87,0,0,.52-6.74-3.49-8.73A5.9,5.9,0,0,0,284.17,406.52Z" style="fill:#263238;stroke:#263238;stroke-linecap:round;stroke-linejoin:round"></path><path d="M313.2,407.18a11.06,11.06,0,0,1,9.16,1.09l.87-3.49s-2-3.93-9.16-1.53Z" style="fill:#263238;stroke:#263238;stroke-linecap:round;stroke-linejoin:round"></path><path d="M301,165.84s-12-1.31-17.9,1.09-16.8,13.53-17.89,14.62-17.67,11.35-17.67,11.35L242,185.39a18.76,18.76,0,0,1-4.31,4.89,16.38,16.38,0,0,1-5,2.09,53.27,53.27,0,0,0,3,5.77c4.15,6.54,5,9.16,7.2,9.82s24-11.57,27.5-13.1,10.25-5,10.25-5S277,198.79,277,201s3.5,7.2,5,8.95,2,5.24,2,5.24-1.09,6.54-1.53,11.78c-.42,5-6.37,9.59-8.82,25.46,4.12,3.31,13,8.72,27.15,9a99.28,99.28,0,0,0,26.66-3.25,85.56,85.56,0,0,0-4.4-21.63,43.83,43.83,0,0,1-2.19-21.38c0-1.53,8.29-15.5,10.69-27.06s2.19-14-1.52-18.55S301,165.84,301,165.84Z" style="fill:#92E3A9;stroke:#263238;stroke-linecap:round;stroke-linejoin:round"></path><path d="M294.67,208.34s2.86,6.2,14.79,7.63" style="fill:none;stroke:#263238;stroke-linecap:round;stroke-linejoin:round"></path><line x1="280.68" y1="189.85" x2="277.85" y2="178.5" style="fill:none;stroke:#263238;stroke-linecap:round;stroke-linejoin:round"></line><line x1="326.65" y1="200.46" x2="319.96" y2="192.11" style="fill:none;stroke:#263238;stroke-linecap:round;stroke-linejoin:round"></line><path d="M216.75,167.15s1.31-.87,1.09-3.93" style="fill:none;stroke:#263238;stroke-linecap:round;stroke-linejoin:round"></path><path d="M227.86,160.67s-2.6-7.21-4.13-7.42-5,0-8.29,0-1.53,1.52.65,2.18,5.9,1.31,5.9,1.31l1.52.87" style="fill:#fff;stroke:#263238;stroke-linecap:round;stroke-linejoin:round"></path><path d="M326.64,251.33a73.39,73.39,0,0,1-30.9-.39,138.66,138.66,0,0,1-20.49-6.21,67.4,67.4,0,0,0-2,10.14c-2.18,17.89-.87,31.2,3.71,46.26S282,319,282,319s.66,15.93,2.84,26.41c1.31,6.31,4.57,24.51,7.4,36.14,3,.9,5.87.9,10.53-1.06-.15-11.43-.26-30.5-.26-30.5s6.13,17,10.29,29.17a20.41,20.41,0,0,0,9.77-.85c-1.39-9.6-3.79-26.34-4.13-37.92-.43-15.06-6.33-23.57-6.33-23.57s13.1-29.68,14.84-41.89A82.59,82.59,0,0,0,326.64,251.33Z" style="fill:#263238;stroke:#263238;stroke-linecap:round;stroke-linejoin:round"></path><path d="M300.11,344.55c.66,2,1.08,3.28,1.08,3.28" style="fill:none;stroke:#fff;stroke-linecap:round;stroke-linejoin:round"></path><path d="M296.83,263.16s-5.45,48.88-3.27,58.7c1.2,5.43,3.41,12.8,5.15,18.3" style="fill:none;stroke:#fff;stroke-linecap:round;stroke-linejoin:round"></path><path d="M323.88,253.4s1,18.76-3.55,35.5a90.76,90.76,0,0,1-14.7,29.4s4.05,1.53,2,3.05,1.52,2,1.52,2,3.55,3.05,5.07,11.16,5.07,27.89,5.07,27.89" style="fill:none;stroke:#fff;stroke-linecap:round;stroke-linejoin:round"></path><line x1="296.41" y1="265.46" x2="288.38" y2="258.96" style="fill:none;stroke:#fff;stroke-linecap:round;stroke-linejoin:round"></line><path d="M300.76,155.81A78.69,78.69,0,0,1,299,167.37c-1.31,5.24-5.89,16.58-5.23,19.86s9.81-2.4,15.27-8.95,6.55-11.13,6.11-14.84-3.71-11.78-7.86-11.78S300.76,155.81,300.76,155.81Z" style="fill:#fff;stroke:#263238;stroke-linecap:round;stroke-linejoin:round"></path><path d="M307.52,154.06s.22,9.6,5,12.22,14.62,2.84,18.11,6.11,9.6,22.69,10.26,21,0-10.7-3.71-18.33-7-8.73-4.8-16.37,1.8-26.27-3.06-37.75c-2.68-6.35-21.16-9.6-27.93-7a23.41,23.41,0,0,0-10,7.2s-6.77-1.31-6.77,3.06,5.67,9.82,9.82,9.82,3.93-10.48,7.64-6.11S304.47,148.6,307.52,154.06Z" style="fill:#263238;stroke:#263238;stroke-linecap:round;stroke-linejoin:round"></path><path d="M312.06,123.94a24.66,24.66,0,0,1,1.82,9c.53,11.49-1.34,22.19,2.67,27.26S327,165,332.06,168.73" style="fill:none;stroke:#fff;stroke-linecap:round;stroke-linejoin:round"></path><path d="M308.53,119.81a4.6,4.6,0,0,1,1.7,1.27" style="fill:none;stroke:#fff;stroke-linecap:round;stroke-linejoin:round"></path><path d="M318.69,117.94s3.21,6.14,3.21,17.11-3.74,20.85-1.07,25.12a17.15,17.15,0,0,0,7.48,6.15" style="fill:none;stroke:#fff;stroke-linecap:round;stroke-linejoin:round"></path><path d="M296,153s.43,7.85-3.06,12.65-8.73,9.17-6.33,14.84,3.28,6.11,3.5,3.49-.88-5,5-9.16,6.55-14.84,6.77-19.42S297.05,150.79,296,153Z" style="fill:#263238;stroke:#263238;stroke-linecap:round;stroke-linejoin:round"></path><path d="M300.76,122.64s-6.11,3.93-7.2,7.85-1.53,13.75-.66,18.11,3.06,8.73,7.42,9.17,7.2-3.71,7.2-3.71-1.09-15.93-1.09-22.26S300.76,122.64,300.76,122.64Z" style="fill:#fff;stroke:#263238;stroke-linecap:round;stroke-linejoin:round"></path><path d="M323.23,189l11.57,28.37s-.66,2.18-13.75,3.71-21.16.22-23.35-.22-6.11-5.67-8.72-6.11a46.15,46.15,0,0,0-7.64-.22c-2,0-2.18,1.31-1.31,2.18a5.26,5.26,0,0,0,2.62,1.1l.43.87s-5-.44-5.45,1.09,1.53,2.84,2.4,3,2.62,3.71,3.93,4.8,4.8,1.1,9.16,1.1a39,39,0,0,0,8.07-.88s13.53,2.19,26.63,3.06,24.22-2.4,25.31-3.71-9.6-28.59-12.22-33.82-5.24-19.42-9.6-22.26-9.17-.44-9.17-.44" style="fill:#92E3A9;stroke:#263238;stroke-linecap:round;stroke-linejoin:round"></path><path d="M334.8,217.34s5.13-3.6,10.91,1" style="fill:none;stroke:#263238;stroke-linecap:round;stroke-linejoin:round"></path><path d="M280,222.79c.87.22,2.62,3.71,3.93,4.8s4.8,1.1,9.16,1.1a39,39,0,0,0,8.07-.88s13.53,2.19,26.63,3.06c1.24.08,2.46.12,3.66.13.1-.39.19-.79.26-1.22a13.25,13.25,0,0,0-2.31-10.12,73.34,73.34,0,0,1-8.38,1.39c-13.09,1.53-21.16.22-23.35-.22s-6.11-5.67-8.72-6.11a46.15,46.15,0,0,0-7.64-.22c-2,0-2.18,1.31-1.31,2.18a5.26,5.26,0,0,0,2.62,1.1l.43.87s-5-.44-5.45,1.09S279.16,222.58,280,222.79Z" style="fill:#fff;stroke:#263238;stroke-linecap:round;stroke-linejoin:round"></path><path d="M282.42,212h3.49a0,0,0,0,1,0,0v5.4a1.59,1.59,0,0,1-1.59,1.59H284a1.59,1.59,0,0,1-1.59-1.59V212A0,0,0,0,1,282.42,212Z" transform="translate(-45.31 78.98) rotate(-14.67)" style="fill:#263238"></path><line x1="283.08" y1="218.65" x2="289.19" y2="217.56" style="fill:none;stroke:#263238;stroke-linecap:round;stroke-linejoin:round"></line><path d="M201.71,268.12s24-6.19,46.69-7,31,2.33,33.27,7.23-1,13.42-10.06,18.07-48.75,8.26-64.23,3.87S196,271.74,201.71,268.12Z" style="fill:#92E3A9;stroke:#263238;stroke-linecap:round;stroke-linejoin:round"></path><path d="M158.28,315.42s1,43.18-2.39,67.51c-2.52,17.85-6.17,28.1-5.82,29.82s3.76,1.37,6.16.34,8.22-31.19,9.93-58.6.68-39.07.68-39.07Z" style="fill:#fff;stroke:#263238;stroke-linecap:round;stroke-linejoin:round"></path><path d="M160.34,315.42s1,43.18-2.4,67.51c-2.51,17.85-6.16,28.1-5.82,29.82s3.77,1.37,6.16.34,8.22-31.19,9.93-58.6.69-39.07.69-39.07Z" style="fill:#263238;stroke:#263238;stroke-linecap:round;stroke-linejoin:round"></path><path d="M236.29,315.42s-1,43.18,2.4,67.51c2.51,17.85,6.16,28.1,5.82,29.82s-3.77,1.37-6.16.34-8.22-31.19-9.93-58.6-.69-39.07-.69-39.07Z" style="fill:#fff;stroke:#263238;stroke-linecap:round;stroke-linejoin:round"></path><path d="M238.35,315.42s-1,43.18,2.39,67.51c2.52,17.85,6.17,28.1,5.82,29.82s-3.76,1.37-6.16.34-8.22-31.19-9.93-58.6-.68-39.07-.68-39.07Z" style="fill:#263238;stroke:#263238;stroke-linecap:round;stroke-linejoin:round"></path><path d="M170.27,315.42s1,43.18-2.4,67.51c-2.51,17.85-6.16,28.1-5.82,29.82s3.77,1.37,6.16.34,8.22-31.19,9.93-58.6.69-39.07.69-39.07Z" style="fill:#fff;stroke:#263238;stroke-linecap:round;stroke-linejoin:round"></path><path d="M172.32,315.42s1,43.18-2.39,67.51c-2.52,17.85-6.17,28.1-5.83,29.82s3.77,1.37,6.17.34,8.22-31.19,9.93-58.6.68-39.07.68-39.07Z" style="fill:#263238;stroke:#263238;stroke-linecap:round;stroke-linejoin:round"></path><path d="M183.14,187.32s11.6,15.23,16.51,21.17,7.73,11.87,5.67,16.78-8.25,11.1-8.25,11.1,11.6,37.43,13.67,43.11.51,17.3-2.58,20.91-15.74,8.26-27.86,5.68-15.22-16-14.45-29.43,7-26.85,4.13-37.69-11.35-25.3-11.61-31.5,2.07-28.65,11.1-30.72S183.14,187.32,183.14,187.32Z" style="fill:#92E3A9;stroke:#263238;stroke-linecap:round;stroke-linejoin:round"></path><path d="M197.07,236.37s6.19-6.2,8.25-11.1-.77-10.84-5.67-16.78-16.51-21.17-16.51-21.17-4.65-12.65-13.67-10.59-11.35,24.53-11.1,30.72S167.14,228.11,170,239s-3.26,24.07-4.1,37.4c18.46.95,35.09-5.21,41.26-7.85C203,255.51,197.07,236.37,197.07,236.37Z" style="fill:#fff"></path><g style="clip-path:url(#freepik--clip-path--inject-16)"><path d="M188,240.74c0-5,5.4-9.14,6.24-16.2s-12.05-19.12-12.05-19.12-15.38-11.27-22.59-10.89a66.61,66.61,0,0,0-1.2,12.92c.26,6.2,8.77,20.66,11.61,31.5s-3.26,24.07-4.1,37.4a91.74,91.74,0,0,0,29.63-3.74C194.77,266.05,188,245.14,188,240.74Z" style="fill:#92E3A9"></path><path d="M188,240.74c0-5,5.4-9.14,6.24-16.2s-12.05-19.12-12.05-19.12-15.38-11.27-22.59-10.89a66.61,66.61,0,0,0-1.2,12.92c.26,6.2,8.77,20.66,11.61,31.5s-3.26,24.07-4.1,37.4a91.74,91.74,0,0,0,29.63-3.74C194.77,266.05,188,245.14,188,240.74Z" style="fill:#fff;opacity:0.5"></path></g><path d="M197.07,236.37s6.19-6.2,8.25-11.1-.77-10.84-5.67-16.78-16.51-21.17-16.51-21.17-4.65-12.65-13.67-10.59-11.35,24.53-11.1,30.72S167.14,228.11,170,239s-3.26,24.07-4.1,37.4c18.46.95,35.09-5.21,41.26-7.85C203,255.51,197.07,236.37,197.07,236.37Z" style="fill:none;stroke:#263238;stroke-linecap:round;stroke-linejoin:round"></path><line x1="182.62" y1="211.33" x2="184.44" y2="198.13" style="fill:none;stroke:#263238;stroke-linecap:round;stroke-linejoin:round"></line><path d="M192.42,129s4.13,6.2,5.94,9.81.25,4.91.51,6.46,4.65,4.39,4.65,6.19-1.81,3.62-1.81,3.62a44.1,44.1,0,0,1-.77,8.26c-.78,3.1-2.07,4.9-3.62,4.9s-8.25-2.06-10.06.26-5.15,16-5.15,17,5.67,8.52,5.67,8.52-1.55-1-7-6.71-9.81-7.75-8-11.36-.52-16.78-2.58-23.75,4.13-13.68,7.48-16.52S189.33,129,192.42,129Z" style="fill:#fff;stroke:#263238;stroke-linecap:round;stroke-linejoin:round"></path><path d="M172.05,182.67s-7.48-.26-10.06,6.46,2.06,26.33,2.83,31.49,5.68,25.56,7,30.21,2.58,12.39,4.12,12.39,16,3.1,31.47,1.29,36.12-3.36,36.12-3.36l16.76.52c2-1.11-10.59-8.24-21.92-5.94-5,1-30.44-3.87-36.11-4.39S189.07,248,189.07,248s-6.45-33.82-6.45-36.66-2.06-14.2-2.06-14.2" style="fill:#fff"></path><g style="clip-path:url(#freepik--clip-path-2--inject-16)"><path d="M180.08,253.21c-3.74-3.74-10-41.14-10.39-53.6-.31-9.36,2.18-13.56,3.45-15.08l-1.09-1.86s-7.48-.26-10.06,6.46,2.06,26.33,2.83,31.49,5.68,25.56,7,30.21,2.58,12.39,4.12,12.39,16,3.1,31.47,1.29c8.45-1,18.42-1.9,25.75-2.52l.13-.06S183.82,257,180.08,253.21Z" style="fill:#92E3A9"></path><path d="M180.08,253.21c-3.74-3.74-10-41.14-10.39-53.6-.31-9.36,2.18-13.56,3.45-15.08l-1.09-1.86s-7.48-.26-10.06,6.46,2.06,26.33,2.83,31.49,5.68,25.56,7,30.21,2.58,12.39,4.12,12.39,16,3.1,31.47,1.29c8.45-1,18.42-1.9,25.75-2.52l.13-.06S183.82,257,180.08,253.21Z" style="fill:#fff;opacity:0.5"></path></g><path d="M172.05,182.67s-7.48-.26-10.06,6.46,2.06,26.33,2.83,31.49,5.68,25.56,7,30.21,2.58,12.39,4.12,12.39,16,3.1,31.47,1.29,36.12-3.36,36.12-3.36l16.76.52c2-1.11-10.59-8.24-21.92-5.94-5,1-30.44-3.87-36.11-4.39S189.07,248,189.07,248s-6.45-33.82-6.45-36.66-2.06-14.2-2.06-14.2" style="fill:none;stroke:#263238;stroke-linecap:round;stroke-linejoin:round"></path><path d="M238.34,255.73a33.68,33.68,0,0,1-8-.3,11.41,11.41,0,0,1,.17,6.78c7.45-.64,13-1.06,13-1.06l16.76.52C262.24,260.56,249.67,253.43,238.34,255.73Z" style="fill:#fff;stroke:#263238;stroke-linecap:round;stroke-linejoin:round"></path><path d="M178.24,280.77s20.37-6.71,51.07-7.48,49,11.87,49,17.29-15.22,55-20.12,65.57c-1,2.1-5.68,16.79-5.93,19.88s1.8,13.43,3.61,20.66,5.67,9.81,4.38,11.1-2.83,1.29-6.7-1-8.52-9.55-10.84-12.9-6.45-8.52-9.8-12.65,2.32-7.49,4.9-9.3,7.22-5.42,8.51-10.84,4.91-46.21,5.94-52.15a129.84,129.84,0,0,1,3.35-13.42s-30.44,6.71-49.78,9.29-20.64,3.87-33.79-2.84" style="fill:#92E3A9;stroke:#263238;stroke-linecap:round;stroke-linejoin:round"></path><path d="M179.62,299.83s4.4,2.2,20.9,0,41.82-9.36,48.42-11.56.55,1.65,4.41,1.65h8.25s-1.65-.55-.55,2.75,6.05,2.75,4.4,4.41-12.1,33.59-15.4,45.15" style="fill:none;stroke:#263238;stroke-linecap:round;stroke-linejoin:round;stroke-width:0.75px"></path><path d="M260.26,407.79c1.29-1.29-2.58-3.88-4.38-11.1S252,379.13,252.27,376c.16-1.95,2.08-8.49,3.73-13.59-5.06-.67-7.71-3-9.07-5-.23,1.7-.43,3-.6,3.66-1.29,5.42-5.93,9-8.51,10.84s-8.25,5.17-4.9,9.3,7.48,9.29,9.8,12.65,7,10.58,10.84,12.9S259,409.08,260.26,407.79Z" style="fill:#fff;stroke:#263238;stroke-linecap:round;stroke-linejoin:round"></path><path d="M252.38,378.74a3.81,3.81,0,0,0-2.95,1.17,34.94,34.94,0,0,0-2.84,3.09,13,13,0,0,1-6.45-5.42c-.9-1.68-1.84-3.71-2.63-5.47-2.68,1.85-7.82,5.11-4.59,9.09,3.35,4.13,7.48,9.29,9.8,12.65s7,10.58,10.84,12.9,5.41,2.33,6.7,1-2.58-3.88-4.38-11.1A155.5,155.5,0,0,1,252.38,378.74Z" style="fill:#fff;stroke:#263238;stroke-linecap:round;stroke-linejoin:round"></path><path d="M265.16,274.06s0,17.81,4.13,27.11,19.61,33.56,21.41,41-1,15-1.8,18.85-1.29,6.45,3.09,7,10.06,3.87,13.67,7.49,10.32,5.16,13.16,5.16,3.87-1.55-5.42-10.58c-2.89-2.82-8.51-12.91-10.58-15.75s-6.7-28.14-9.54-40.53S285.54,277.93,284,273s-3.09-8-9-9.3" style="fill:#92E3A9;stroke:#263238;stroke-linecap:round;stroke-linejoin:round"></path><path d="M313.4,370.1c-2.89-2.82-8.51-12.91-10.58-15.75-.92-1.28-2.38-7.11-3.95-14.26a17.65,17.65,0,0,1-8.13,2.32c1.71,7.42-1.08,14.81-1.84,18.65s-1.29,6.45,3.09,7,10.06,3.87,13.67,7.49,10.32,5.16,13.16,5.16S322.69,379.13,313.4,370.1Z" style="fill:#fff;stroke:#263238;stroke-linecap:round;stroke-linejoin:round"></path><path d="M318.82,380.68c2.83,0,3.87-1.55-5.42-10.58-2.6-2.53-7.95-11.4-9.93-14.75a4.31,4.31,0,0,0-1.94,1.58,24.5,24.5,0,0,0-2.32,4.39,105.32,105.32,0,0,1-8.89-6.13c-.53,2.35-1.13,4.38-1.42,5.87-.78,3.87-1.29,6.45,3.09,7s10.06,3.87,13.67,7.49S316,380.68,318.82,380.68Z" style="fill:#fff;stroke:#263238;stroke-linecap:round;stroke-linejoin:round"></path><path d="M248.28,315.42s-1,43.18,2.39,67.51c2.52,17.85,6.17,28.1,5.82,29.82s-3.76,1.37-6.16.34-8.22-31.19-9.93-58.6-.68-39.07-.68-39.07Z" style="fill:#fff;stroke:#263238;stroke-linecap:round;stroke-linejoin:round"></path><path d="M250.33,315.42s-1,43.18,2.4,67.51c2.51,17.85,6.16,28.1,5.82,29.82s-3.77,1.37-6.16.34-8.22-31.19-9.93-58.6-.69-39.07-.69-39.07Z" style="fill:#263238;stroke:#263238;stroke-linecap:round;stroke-linejoin:round"></path><path d="M153.76,206.21s13.75,37.45,5.5,99.68h13.2s3.85-68.29-6.05-100.78Z" style="fill:#263238;stroke:#263238;stroke-linecap:round;stroke-linejoin:round"></path><path d="M150.33,206.21s13.76,37.45,5.5,99.68H169s3.85-68.29-6-100.78Z" style="fill:#fff;stroke:#263238;stroke-linecap:round;stroke-linejoin:round"></path><rect x="155.49" y="303.68" width="101.16" height="15.42" style="fill:#fff;stroke:#263238;stroke-linecap:round;stroke-linejoin:round"></rect><rect x="172.67" y="303.68" width="83.98" height="15.42" style="fill:#263238;stroke:#263238;stroke-linecap:round;stroke-linejoin:round"></rect><path d="M195.42,124.63s-4.06,14-7.75,19.57a25.27,25.27,0,0,1-9.23,8.13s3.32,11.82,2.58,22.17-8.12,9.6-15.87,22.53-2.21,36.57-5.54,42.85-19.4-11-24-27c-4.11-14.29,7.5-24.81,19.2-41,7-9.66-4.06-27.71-1.48-35.09s14.39-13.67,24-16.26S195.05,121.67,195.42,124.63Z" style="fill:#263238;stroke:#263238;stroke-linecap:round;stroke-linejoin:round"></path><path d="M148.2,199.62c-4.66,4.66-8.15,10.19-5.86,17.95,4,13.5,14.28,19.45,16.66,8.73" style="fill:none;stroke:#fff;stroke-linecap:round;stroke-linejoin:round"></path><path d="M186.37,122.67s.8,13.9-6.35,24.22-10.31,13.5-8.72,24.62c.8,5.63-6,11.51-12.7,18.66-1.81,1.92-4.11,3.81-6.42,5.81" style="fill:none;stroke:#fff;stroke-linecap:round;stroke-linejoin:round"></path><path d="M174.38,133.42a24.73,24.73,0,0,1,.88,9.9c-1.19,11.51-7.53,10.32-8.72,17.07s1.58,12.71-.4,17.08-20.23,10.72-27.38,20.64" style="fill:none;stroke:#fff;stroke-linecap:round;stroke-linejoin:round"></path><path d="M170.11,125.85a14.74,14.74,0,0,1,2.19,2.89" style="fill:none;stroke:#fff;stroke-linecap:round;stroke-linejoin:round"></path><path d="M183.14,153s-3.61-7.48-5.94-4.64,1,9.81,2.84,11.36a2,2,0,0,0,3.1-.52s1,4.9,3.35,6.45" style="fill:#fff;stroke:#263238;stroke-linecap:round;stroke-linejoin:round"></path><path d="M205.49,155.48l18.06,3.59a2.16,2.16,0,0,0,2.55-1.77h0a2.16,2.16,0,0,0-1.88-2.48l-18.39-2.12Z" style="fill:#fff;stroke:#263238;stroke-linecap:round;stroke-linejoin:round"></path><path d="M205.49,155.48a17.71,17.71,0,0,1-4.87,1.44c-1.72,0-2.7-1.44-2.25-4.29s2.13-2.59,3.13-2.53,4.33,2.6,4.33,2.6Z" style="fill:#263238;stroke:#263238;stroke-miterlimit:10"></path><path d="M224.17,160.39s-2.4-1.31-5-2.84-6.33-2.62-5.67.22,4.8,3.49,6.11,5.45,3.27,6.77,7.63,7.64" style="fill:#fff;stroke:#263238;stroke-linecap:round;stroke-linejoin:round"></path></g><g id="freepik--Floor--inject-16"><rect x="85" y="413" width="314.67" height="6" style="fill:#263238"></rect></g></svg>