<?xml version="1.0" encoding="UTF-8" ?>
<!DOCTYPE svg PUBLIC "-//W3C//DTD SVG 1.1//EN" "http://www.w3.org/Graphics/SVG/1.1/DTD/svg11.dtd">
<svg width="609pt" height="199pt" viewBox="0 0 609 199" version="1.1" xmlns="http://www.w3.org/2000/svg">
<g id="#231f20ff">
<path fill="#231f20" opacity="1.00" d=" M 91.81 5.03 C 92.87 18.59 95.93 32.61 104.48 43.56 C 114.84 57.66 131.90 64.65 142.75 78.25 C 150.66 88.25 153.98 101.36 153.56 113.96 C 153.08 128.59 144.71 142.72 131.98 149.99 C 136.37 144.98 141.35 140.27 143.92 133.98 C 148.95 123.33 146.78 110.71 141.35 100.66 C 133.54 85.86 121.45 73.99 109.54 62.49 C 94.66 47.82 87.74 25.52 91.81 5.03 Z" />
<path fill="#231f20" opacity="1.00" d=" M 53.16 30.19 C 61.43 22.51 71.94 16.81 83.14 15.08 C 67.60 22.02 53.54 33.81 46.54 49.59 C 40.28 63.49 41.15 79.67 46.19 93.80 C 48.49 100.95 52.16 107.51 55.56 114.17 C 47.03 106.12 41.40 95.28 38.23 84.07 C 33.43 65.20 39.09 43.79 53.16 30.19 Z" />
<path fill="#231f20" opacity="1.00" d=" M 101.97 19.69 C 104.77 23.03 106.97 26.86 110.12 29.92 C 118.38 38.30 128.32 44.86 138.71 50.30 C 151.81 57.28 164.92 64.92 175.07 75.94 C 183.16 84.58 188.77 96.00 188.68 108.01 C 188.66 122.17 183.51 137.12 172.18 146.18 C 163.79 152.72 152.88 156.38 142.23 155.45 C 154.30 153.77 166.31 148.63 174.16 139.03 C 183.77 127.91 185.92 111.60 180.90 97.97 C 176.03 83.68 164.75 72.74 152.63 64.29 C 143.01 57.39 132.42 52.02 122.68 45.31 C 113.69 38.85 105.82 30.21 101.97 19.69 Z" />
<path fill="#231f20" opacity="1.00" d=" M 123.62 31.28 C 121.45 29.80 119.28 28.29 117.53 26.31 C 128.64 32.11 139.79 37.87 151.32 42.83 C 160.80 46.90 170.36 51.87 177.00 60.00 C 179.13 62.58 180.64 65.62 181.36 68.89 C 174.18 61.74 165.91 55.76 157.00 50.95 C 145.59 44.89 134.23 38.67 123.62 31.28 Z" />
<path fill="#231f20" opacity="1.00" d=" M 63.91 66.86 C 73.21 58.62 82.66 50.46 92.86 43.33 C 89.04 52.36 81.51 58.99 74.27 65.26 C 69.19 69.30 64.72 74.40 62.74 80.69 C 58.27 94.25 64.18 109.30 74.11 118.87 C 86.86 130.69 103.69 136.40 118.05 145.84 C 126.93 151.42 134.73 159.24 138.58 169.14 C 141.78 176.99 142.13 185.90 139.74 194.02 C 138.22 190.87 137.34 187.45 135.71 184.35 C 131.53 175.98 125.15 168.90 118.04 162.90 C 102.97 149.97 84.60 141.53 69.87 128.19 C 59.86 119.35 54.31 106.17 53.65 92.96 C 53.41 83.40 56.44 73.23 63.91 66.86 Z" />
<path fill="#231f20" opacity="1.00" d=" M 79.67 65.23 C 83.78 62.02 89.38 60.13 94.53 61.67 C 99.80 63.70 104.71 66.88 108.38 71.21 C 102.88 72.33 98.73 68.33 94.60 65.48 C 90.11 62.44 84.53 64.41 79.67 65.23 Z" />
<path fill="#231f20" opacity="1.00" d=" M 76.07 72.34 C 78.17 74.08 80.38 75.69 82.79 76.99 C 82.39 75.61 81.98 74.23 81.56 72.85 C 85.26 77.27 91.23 76.04 96.27 76.84 C 101.56 78.29 105.69 82.54 108.38 87.18 C 103.70 86.34 101.15 81.80 96.88 80.06 C 95.98 82.12 94.68 84.76 91.99 84.56 C 89.08 84.85 87.26 82.05 86.97 79.49 C 83.84 79.65 80.57 80.29 77.51 79.29 C 75.57 78.70 74.64 76.80 73.58 75.26 C 75.61 76.39 77.69 77.41 79.88 78.20 C 78.32 76.45 76.96 74.52 76.07 72.34 Z" />
<path fill="#231f20" opacity="1.00" d=" M 212.79 79.06 C 238.14 79.11 263.49 78.92 288.84 79.21 C 289.58 86.36 288.89 93.55 288.97 100.72 C 287.33 100.69 285.70 100.66 284.07 100.63 C 283.39 97.20 283.45 93.65 282.65 90.24 C 281.48 87.68 278.49 86.88 275.96 86.39 C 264.73 84.58 253.32 85.17 242.01 85.45 C 241.79 98.71 241.96 111.98 241.81 125.24 C 249.86 125.24 257.92 125.28 265.97 125.07 C 269.31 124.82 273.47 124.72 275.51 121.58 C 277.59 117.97 276.54 113.59 276.78 109.64 C 278.64 109.61 280.49 109.57 282.36 109.53 C 282.41 112.26 282.47 115.00 282.53 117.73 C 286.55 114.66 290.21 110.95 294.95 108.99 C 302.47 105.87 311.16 105.33 318.87 108.10 C 325.84 110.55 330.90 117.60 331.01 124.98 C 331.35 132.34 330.27 139.66 330.25 147.01 C 330.22 155.68 329.83 164.35 330.25 173.02 C 334.38 174.86 339.26 174.65 342.97 171.94 C 345.95 160.19 345.12 147.97 345.10 135.97 C 344.49 128.81 344.59 121.52 342.91 114.50 C 339.62 114.34 336.34 114.00 333.07 113.61 C 333.08 112.40 333.08 111.19 333.08 109.98 C 335.83 108.43 339.05 108.93 342.06 108.66 C 347.18 108.29 352.28 107.74 357.42 107.78 C 357.52 112.94 357.44 118.09 357.58 123.25 C 362.40 119.98 365.11 114.37 370.05 111.16 C 374.83 107.19 381.20 106.85 387.09 106.20 C 385.13 110.10 383.43 114.13 382.16 118.30 C 371.74 114.81 362.70 124.26 359.10 133.09 C 355.98 146.30 358.31 159.92 358.49 173.29 C 363.68 174.12 368.95 174.19 374.21 174.27 C 374.30 175.84 374.41 177.41 374.52 178.98 C 355.37 179.37 336.18 179.13 317.07 180.74 C 317.00 177.26 316.93 173.77 316.85 170.29 C 310.97 174.03 305.58 178.91 298.72 180.79 C 293.14 182.27 286.78 182.45 281.74 179.24 C 277.97 176.76 274.92 172.64 274.89 167.96 C 273.75 160.45 278.59 153.66 284.12 149.14 C 293.53 141.53 305.80 139.50 317.12 136.29 C 317.12 130.67 317.71 124.51 314.49 119.57 C 311.72 115.06 305.93 113.34 300.92 114.17 C 293.58 115.37 287.36 120.44 283.46 126.61 C 282.34 128.16 282.43 130.15 282.34 131.97 C 282.24 137.15 282.44 142.33 282.37 147.52 C 280.51 147.42 278.66 147.32 276.80 147.23 C 276.47 142.04 277.83 134.78 271.95 132.17 C 262.40 130.81 252.70 131.72 243.08 131.48 C 240.24 131.55 241.43 135.17 241.16 136.99 C 241.62 148.25 239.86 159.85 243.36 170.79 C 248.12 174.89 255.07 172.82 260.80 173.89 C 260.85 175.62 260.90 177.35 260.95 179.08 C 249.00 179.86 237.01 179.57 225.03 179.63 C 220.67 179.57 216.28 179.91 211.97 179.12 C 212.14 177.41 212.29 175.71 212.46 174.00 C 216.31 173.26 221.53 174.78 224.11 171.02 C 225.98 168.42 226.92 165.19 226.83 161.99 C 226.92 144.32 226.86 126.66 226.88 108.99 C 226.91 102.95 226.30 96.94 225.92 90.92 C 225.82 88.29 224.20 85.42 221.49 84.81 C 218.65 84.30 215.74 84.42 212.87 84.34 C 212.84 82.58 212.82 80.82 212.79 79.06 M 290.07 158.23 C 287.19 163.38 290.06 171.05 296.05 172.21 C 301.37 173.63 306.67 170.94 310.81 167.81 C 313.56 165.59 316.83 162.94 316.93 159.10 C 317.10 153.40 317.05 147.70 317.12 142.01 C 306.87 144.23 294.34 147.39 290.07 158.23 Z" />
<path fill="#231f20" opacity="1.00" d=" M 120.58 85.11 C 122.62 91.42 124.87 97.65 127.11 103.89 C 127.80 106.11 129.37 108.31 128.77 110.73 C 126.46 114.42 121.95 115.82 117.88 116.48 C 119.84 113.55 124.58 111.16 123.23 107.04 C 121.29 99.94 117.85 92.51 120.58 85.11 Z" />
</g>
<g id="#ec008cff">
<path fill="#ec008c" opacity="1.00" d=" M 478.60 44.09 C 481.28 30.96 492.74 20.89 505.50 17.85 C 498.49 22.69 492.01 29.42 490.46 38.10 C 488.09 50.79 489.22 65.13 497.24 75.72 C 500.39 80.01 505.22 82.63 510.30 83.94 C 509.71 66.37 505.91 48.40 510.62 31.07 C 513.92 20.10 527.68 15.57 537.85 19.18 C 547.19 22.30 554.31 30.66 556.73 40.10 C 559.95 49.71 557.59 59.89 555.83 69.52 C 559.64 69.31 563.45 69.04 567.27 68.84 C 567.68 79.24 567.31 89.66 566.79 100.06 C 566.64 122.37 566.46 144.68 566.79 166.99 C 566.80 169.99 567.29 172.95 567.68 175.91 C 571.48 175.95 575.30 176.08 579.06 176.75 C 579.01 178.09 578.98 179.43 578.96 180.77 C 569.72 182.48 560.31 181.92 550.97 182.00 C 539.32 181.97 527.67 182.05 516.03 181.96 C 506.70 181.71 496.74 180.63 488.98 174.96 C 481.83 169.74 478.53 160.64 478.36 152.03 C 478.15 147.09 479.50 142.30 480.32 137.48 C 476.57 137.14 472.38 138.07 471.04 142.06 C 470.37 153.05 471.21 164.09 470.98 175.11 C 461.50 179.15 451.13 180.44 440.96 181.43 C 424.81 182.67 407.31 179.22 395.18 167.82 C 384.56 157.41 379.60 141.62 381.66 126.99 C 381.90 124.09 381.68 121.17 382.16 118.30 C 383.43 114.13 385.13 110.10 387.09 106.20 C 390.32 100.66 393.93 95.16 398.97 91.07 C 410.05 81.74 424.65 77.39 438.97 77.00 C 449.35 76.82 459.91 77.41 469.82 80.74 C 469.75 90.44 469.76 100.14 469.73 109.84 C 468.08 109.71 466.30 110.06 464.76 109.45 C 463.54 105.45 463.76 101.07 461.77 97.31 C 458.60 91.06 452.81 85.89 445.88 84.35 C 436.83 81.97 426.74 82.80 418.65 87.70 C 409.13 93.36 403.15 103.58 400.47 114.10 C 396.69 129.14 398.57 145.84 406.96 159.03 C 412.15 166.61 419.95 172.73 429.09 174.55 C 437.93 176.37 447.80 176.79 455.74 171.81 C 455.98 162.57 456.39 153.29 455.47 144.08 C 455.33 141.54 453.82 139.51 452.04 137.85 C 448.00 137.50 443.97 137.15 439.93 136.89 C 439.96 135.28 439.99 133.67 440.02 132.07 C 454.21 131.21 468.42 132.44 482.61 131.79 C 485.95 127.76 489.02 123.32 493.53 120.50 C 499.34 116.71 506.22 115.01 513.05 114.22 C 512.72 111.48 512.37 108.76 512.02 106.03 C 502.81 108.70 493.59 111.84 483.91 112.17 C 483.96 110.53 484.04 108.90 484.10 107.26 C 488.02 104.10 493.18 103.86 497.85 102.60 C 502.35 101.55 506.80 100.29 511.22 98.94 C 511.16 95.88 511.52 92.61 510.14 89.77 C 506.76 87.81 502.66 87.65 499.12 86.05 C 491.10 83.00 485.10 76.18 481.48 68.57 C 478.12 60.96 476.17 52.26 478.60 44.09 M 520.40 32.50 C 518.85 40.25 518.61 48.16 518.55 56.04 C 517.58 62.31 518.01 68.67 517.86 74.99 C 517.77 78.29 517.85 81.60 518.62 84.82 C 524.82 84.68 531.28 83.27 536.11 79.16 C 541.65 74.88 544.65 68.16 546.26 61.51 C 548.37 50.58 546.68 38.38 539.44 29.59 C 536.44 26.03 531.88 22.41 526.93 24.12 C 523.01 24.96 521.51 29.15 520.40 32.50 M 541.32 84.34 C 534.02 87.84 525.84 88.71 517.88 89.47 C 517.82 91.62 517.77 93.78 517.73 95.93 C 522.41 95.22 527.21 93.80 531.95 94.91 C 537.39 96.10 542.57 98.23 547.81 100.07 C 541.29 99.82 534.72 97.63 528.22 99.18 C 524.72 100.24 521.31 101.61 517.82 102.71 C 516.85 106.50 516.29 110.72 518.17 114.34 C 523.96 114.89 530.00 115.20 535.30 117.86 C 539.85 120.33 544.10 123.63 546.88 128.08 C 555.95 143.16 551.62 165.16 536.90 175.13 C 543.78 175.24 549.64 170.31 552.39 164.29 C 553.85 158.62 553.19 152.75 554.24 147.03 C 554.20 123.48 555.18 99.80 552.27 76.42 C 547.87 77.99 545.47 82.39 541.32 84.34 M 502.29 123.23 C 494.82 128.52 493.07 138.40 493.39 146.97 C 492.89 155.08 494.63 163.65 499.75 170.14 C 507.50 178.50 522.49 178.65 530.50 170.57 C 537.38 162.09 536.79 150.43 536.31 140.15 C 535.23 135.54 534.53 130.56 531.40 126.79 C 528.41 122.25 522.94 120.29 517.76 119.71 C 517.65 129.77 517.89 139.85 517.66 149.90 C 517.25 149.92 516.45 149.96 516.05 149.98 C 515.70 145.34 515.86 140.68 515.03 136.09 C 515.10 130.67 514.46 125.34 513.80 119.99 C 509.80 120.09 505.33 120.24 502.29 123.23 Z" />
<path fill="#ec008c" opacity="1.00" d=" M 99.84 120.73 C 103.47 121.86 107.39 122.82 111.15 121.69 C 114.16 121.08 118.24 119.55 120.42 122.61 C 122.23 125.39 119.58 127.94 117.12 128.91 C 117.97 131.02 118.01 133.64 115.96 135.08 C 112.52 136.42 108.41 134.63 106.10 131.97 C 103.89 128.30 102.50 124.15 99.84 120.73 Z" />
</g>
</svg>
