<?xml version="1.0" encoding="UTF-8" ?>
<!DOCTYPE svg PUBLIC "-//W3C//DTD SVG 1.1//EN" "http://www.w3.org/Graphics/SVG/1.1/DTD/svg11.dtd">
<svg width="121pt" height="179pt" viewBox="0 0 512 757" version="1.1" xmlns="http://www.w3.org/2000/svg">
<g id="#231f20ff">
<path fill="#231f20" opacity="1.00" d=" M 203.76 49.55 C 205.01 53.94 204.76 58.57 205.38 63.06 C 208.22 91.01 216.42 119.04 233.07 141.98 C 243.39 156.47 256.61 168.59 270.56 179.51 C 286.93 192.41 304.42 204.02 319.20 218.81 C 328.21 227.73 336.04 237.92 341.86 249.21 C 349.38 263.73 353.61 279.77 355.75 295.93 C 358.81 319.27 355.69 343.78 344.70 364.78 C 337.40 379.00 326.77 391.43 314.14 401.19 C 310.78 403.74 307.35 406.27 303.48 408.01 C 305.53 404.63 308.80 402.30 311.46 399.45 C 326.83 383.74 338.65 363.34 339.81 340.99 C 341.23 319.19 333.40 297.98 322.69 279.35 C 307.40 252.95 286.64 230.28 265.24 208.75 C 256.09 199.52 246.15 191.04 237.90 180.95 C 215.23 153.98 202.35 119.20 201.17 84.05 C 200.83 72.54 200.93 60.77 203.76 49.55 Z" />
<path fill="#231f20" opacity="1.00" d=" M 146.69 85.68 C 158.04 80.57 169.83 76.01 182.12 73.81 C 178.30 76.66 173.69 78.09 169.60 80.47 C 140.06 96.46 113.46 119.43 97.08 149.09 C 83.16 174.13 78.21 203.73 82.07 232.04 C 85.44 258.54 95.18 283.83 107.68 307.30 C 109.78 311.34 112.33 315.15 113.97 319.42 C 111.99 317.94 110.16 316.27 108.53 314.41 C 95.89 300.27 85.82 283.90 78.52 266.42 C 73.22 253.51 69.09 239.97 67.87 226.01 C 65.14 196.42 71.15 165.83 86.14 140.06 C 99.89 116.08 121.66 97.18 146.69 85.68 Z" />
<path fill="#231f20" opacity="1.00" d=" M 229.64 86.21 C 232.63 89.40 234.55 93.39 237.18 96.86 C 249.25 113.30 265.03 126.59 281.58 138.31 C 292.12 145.70 302.99 152.66 314.42 158.62 C 344.36 174.56 374.46 191.22 399.45 214.48 C 418.02 231.73 433.64 253.14 440.14 277.94 C 446.39 300.84 443.92 325.29 436.84 347.71 C 431.64 364.10 423.01 379.57 410.80 391.77 C 397.24 405.49 379.55 414.71 360.89 419.24 C 350.55 421.63 339.87 423.31 329.25 422.46 C 331.84 420.87 334.98 420.89 337.89 420.31 C 360.35 416.24 382.00 406.34 398.79 390.72 C 413.12 377.50 423.46 360.03 428.05 341.08 C 433.41 319.30 430.90 296.03 422.76 275.26 C 412.62 248.85 393.44 226.95 371.71 209.31 C 346.88 188.92 318.50 173.61 291.35 156.65 C 273.99 145.93 258.22 132.41 245.86 116.12 C 239.19 106.97 232.62 97.26 229.64 86.21 Z" />
<path fill="#231f20" opacity="1.00" d=" M 267.75 102.61 C 271.76 103.81 275.25 106.18 278.94 108.09 C 298.00 118.28 317.41 127.78 337.06 136.77 C 350.94 143.25 365.32 148.74 378.61 156.43 C 392.20 164.25 405.24 173.61 415.02 186.01 C 419.84 192.28 424.16 199.36 425.17 207.35 C 421.63 204.39 418.59 200.92 415.13 197.87 C 403.79 187.63 391.27 178.75 378.26 170.76 C 365.73 163.01 352.44 156.62 339.62 149.40 C 318.25 137.50 297.10 125.08 277.33 110.65 C 273.99 108.15 270.52 105.76 267.75 102.61 Z" />
<path fill="#231f20" opacity="1.00" d=" M 200.96 147.89 C 202.63 146.63 204.38 145.49 206.19 144.44 C 198.81 163.01 184.28 177.53 169.60 190.59 C 160.72 198.74 150.84 205.96 143.34 215.49 C 133.34 228.36 127.92 244.68 128.12 260.97 C 128.04 272.32 130.65 283.58 134.92 294.07 C 141.09 309.03 150.33 322.81 162.47 333.59 C 183.88 352.81 210.12 365.29 235.25 378.80 C 256.98 390.52 279.15 402.56 296.55 420.41 C 315.15 439.66 327.20 465.98 326.37 493.03 C 325.97 501.32 325.26 509.91 321.76 517.55 C 316.60 499.52 307.91 482.53 296.05 468.00 C 272.86 439.32 241.48 419.09 210.96 399.10 C 186.91 383.26 161.99 367.98 141.99 346.97 C 129.43 333.94 120.84 317.54 115.33 300.40 C 109.42 281.65 107.55 261.30 111.97 242.02 C 115.20 227.73 122.24 214.08 133.09 204.10 C 154.90 184.41 177.59 165.69 200.96 147.89 Z" />
<path fill="#231f20" opacity="1.00" d=" M 173.80 198.49 C 184.37 190.40 198.82 185.60 211.86 190.10 C 224.05 195.47 236.05 202.51 244.51 213.02 C 241.02 213.51 237.40 214.00 233.93 213.09 C 227.15 211.43 221.58 206.97 216.10 202.88 C 211.85 199.70 207.39 196.23 201.93 195.66 C 192.47 194.51 183.02 196.56 173.80 198.49 Z" />
<path fill="#231f20" opacity="1.00" d=" M 165.41 216.18 C 170.28 220.78 175.55 225.15 182.04 227.22 C 180.51 224.02 179.41 220.64 178.69 217.17 C 182.07 220.65 185.87 224.08 190.75 225.17 C 198.85 226.82 207.28 225.56 215.36 227.46 C 220.80 228.65 225.54 231.81 229.86 235.19 C 235.79 239.99 241.12 245.72 244.53 252.62 C 237.46 252.11 232.45 246.92 227.64 242.36 C 224.18 239.28 219.98 237.25 215.77 235.45 C 214.94 238.17 214.26 241.16 212.07 243.16 C 207.68 247.80 199.39 247.48 195.34 242.55 C 193.07 240.24 192.71 236.89 192.30 233.85 C 183.78 234.28 174.58 236.47 166.58 232.46 C 162.75 230.69 160.76 226.79 159.52 222.97 C 163.82 226.82 169.05 229.54 174.84 230.21 C 170.27 226.66 166.73 221.88 165.41 216.18 Z" />
<path fill="#231f20" opacity="1.00" d=" M 274.81 247.89 C 280.39 263.47 285.80 279.12 291.31 294.72 C 292.70 298.83 294.96 302.65 295.82 306.93 C 296.57 310.21 294.36 313.05 292.17 315.20 C 285.94 321.43 277.12 324.27 268.52 325.09 C 272.80 320.21 277.77 315.86 281.28 310.35 C 283.40 307.37 281.90 303.70 281.22 300.51 C 278.04 288.76 273.14 277.30 272.61 264.99 C 272.27 259.20 273.60 253.51 274.81 247.89 Z" />
<path fill="#231f20" opacity="1.00" d=" M 32.17 568.75 C 63.02 568.73 93.86 568.79 124.70 568.73 C 126.20 577.56 124.93 586.56 125.21 595.46 C 123.26 595.46 121.30 595.45 119.35 595.47 C 118.22 591.19 118.59 586.67 117.37 582.43 C 115.81 579.52 112.44 578.44 109.42 577.81 C 95.63 575.55 81.61 576.40 67.71 576.57 C 67.50 592.85 67.65 609.13 67.53 625.41 C 77.34 625.37 87.16 625.45 96.96 625.25 C 100.89 624.89 105.73 624.87 108.37 621.45 C 111.41 617.00 110.16 611.41 110.36 606.39 C 112.66 606.38 114.95 606.39 117.25 606.43 C 117.28 609.64 117.33 612.86 117.47 616.08 C 122.40 612.29 126.91 607.74 132.77 605.39 C 141.31 601.86 151.08 601.26 159.97 603.81 C 168.58 606.19 175.41 614.03 176.48 622.91 C 176.89 631.26 176.52 639.65 175.63 647.96 C 175.49 659.90 175.34 671.85 175.49 683.79 C 180.54 686.31 186.81 686.09 191.29 682.51 C 193.28 674.48 194.03 666.23 193.77 657.98 C 193.85 642.80 194.02 627.48 191.28 612.52 C 187.29 611.99 183.29 611.55 179.28 611.38 C 179.22 609.82 179.16 608.26 179.11 606.73 C 182.65 604.77 186.80 605.69 190.64 605.16 C 196.79 604.26 203.03 604.10 209.23 604.41 C 209.30 610.70 209.05 617.00 209.49 623.28 C 215.57 617.51 220.14 609.96 227.79 605.99 C 233.04 602.93 239.29 602.82 245.16 602.18 C 243.23 605.99 241.72 610.01 239.98 613.92 C 239.30 614.88 238.62 615.85 237.90 616.80 C 235.91 616.45 233.93 616.10 231.96 615.71 C 222.39 617.78 215.12 625.52 211.32 634.23 C 208.82 641.19 209.45 648.75 209.29 656.02 C 209.08 665.48 209.93 674.90 210.41 684.34 C 216.68 685.44 223.05 685.40 229.39 685.45 C 229.50 687.40 229.61 689.36 229.73 691.32 C 216.49 691.53 203.25 691.44 190.02 691.78 C 179.90 692.93 169.63 691.89 159.55 693.66 C 159.45 689.38 159.45 685.10 159.35 680.83 C 151.86 685.10 145.37 691.40 136.83 693.64 C 130.75 695.20 123.88 695.64 118.16 692.63 C 112.42 689.82 107.95 683.95 107.85 677.41 C 106.76 669.73 111.07 662.53 116.39 657.38 C 123.81 649.76 134.07 645.99 144.09 643.15 C 149.18 641.68 154.30 640.35 159.47 639.18 C 159.53 632.52 160.39 625.34 156.87 619.32 C 153.70 613.34 146.31 610.69 139.86 611.82 C 130.58 613.46 122.52 619.87 117.98 628.01 C 115.42 636.03 118.01 644.44 117.01 652.63 C 114.82 652.55 112.64 652.47 110.45 652.40 C 110.28 647.67 110.20 642.86 108.99 638.28 C 107.82 636.56 106.24 635.20 104.79 633.74 C 92.09 633.05 79.34 633.05 66.64 633.57 C 66.54 643.37 66.64 653.18 66.57 662.98 C 66.46 669.51 67.91 675.96 69.69 682.21 C 76.27 685.54 83.75 683.89 90.74 685.18 C 90.78 687.26 90.81 689.33 90.85 691.42 C 85.20 691.46 79.57 691.84 73.94 692.26 C 62.28 692.38 50.62 692.24 38.96 692.33 C 36.23 692.40 33.55 691.86 30.90 691.30 C 31.08 689.31 31.27 687.34 31.44 685.37 C 36.33 684.21 43.04 686.17 46.10 681.14 C 48.24 677.83 49.35 673.86 49.30 669.92 C 49.32 648.28 49.29 626.63 49.32 604.99 C 49.46 598.64 48.27 592.37 48.25 586.03 C 48.26 582.39 47.41 577.99 43.78 576.26 C 40.10 574.97 36.08 575.55 32.26 575.37 C 32.22 573.15 32.19 570.95 32.17 568.75 M 137.41 653.51 C 133.39 655.67 130.41 659.20 127.75 662.82 C 125.73 667.24 123.68 672.67 126.57 677.21 C 129.30 683.25 137.14 684.78 142.89 682.60 C 149.65 680.02 155.93 675.48 159.43 669.02 C 159.44 661.33 159.59 653.64 159.49 645.95 C 151.84 647.44 144.31 649.83 137.41 653.51 Z" />
</g>
<g id="#ec008cff">
<path fill="#ec008c" opacity="1.00" d=" M 223.56 336.10 C 230.22 337.91 237.01 339.69 243.96 339.55 C 252.11 339.12 259.90 335.10 268.17 336.39 C 273.58 337.13 277.71 343.48 275.51 348.65 C 273.90 352.51 270.00 354.68 266.22 355.96 C 268.19 360.19 268.97 365.80 265.62 369.56 C 262.65 373.27 257.26 373.09 253.07 372.06 C 246.49 370.34 239.78 366.63 236.97 360.11 C 233.07 351.81 229.45 343.25 223.56 336.10 Z" />
<path fill="#ec008c" opacity="1.00" d=" M 383.06 495.99 C 385.29 495.15 387.58 494.47 389.94 494.10 C 380.95 500.01 373.03 508.87 371.41 519.85 C 369.15 533.83 370.13 549.16 377.72 561.48 C 380.64 566.35 384.90 570.46 390.10 572.83 C 391.95 573.49 393.80 574.16 395.66 574.84 C 395.88 569.19 395.07 563.54 395.68 557.91 C 396.09 556.77 395.33 556.37 394.39 556.43 C 394.14 545.38 392.56 534.12 394.07 523.03 C 394.33 520.36 394.50 517.69 395.07 515.07 C 396.05 510.58 397.24 505.90 400.51 502.48 C 408.53 493.51 422.49 491.65 433.15 496.72 C 442.70 501.57 450.11 510.55 452.71 520.97 C 455.00 526.69 454.46 532.92 454.49 538.95 C 454.68 545.23 451.66 551.12 452.15 557.43 C 456.57 556.45 461.12 556.47 465.63 556.47 C 465.94 573.96 465.08 591.45 465.22 608.95 C 464.39 622.28 464.81 635.66 464.74 649.01 C 464.83 653.67 464.42 658.36 465.10 663.00 C 465.42 671.15 464.93 679.33 465.83 687.46 C 470.58 687.66 475.37 687.48 480.02 688.63 C 479.99 690.24 479.98 691.87 479.95 693.50 C 470.43 695.48 460.66 694.93 451.00 695.00 C 436.00 695.00 421.00 695.00 406.01 695.00 C 398.95 694.98 391.85 694.69 384.96 693.06 C 378.39 691.42 371.93 688.64 366.93 683.97 C 359.93 676.94 356.72 666.80 357.15 657.00 C 356.87 651.39 358.52 646.00 359.02 640.47 C 356.72 640.68 354.28 640.35 352.10 641.18 C 349.87 642.75 347.52 645.06 347.69 648.02 C 347.41 660.66 348.05 673.32 347.72 685.95 C 347.55 686.21 347.21 686.72 347.03 686.97 C 341.02 689.62 334.46 690.65 328.12 692.25 C 326.39 692.44 324.67 692.62 322.95 692.84 C 310.82 695.08 298.22 695.45 286.10 692.95 C 279.89 691.63 273.79 689.66 268.12 686.79 C 256.21 680.81 246.91 670.32 242.17 657.89 C 239.83 651.51 238.72 644.74 237.74 638.05 C 237.98 631.35 239.39 624.64 238.50 617.92 C 239.19 616.67 239.86 615.40 239.98 613.92 C 241.72 610.01 243.23 605.99 245.16 602.18 C 249.26 595.21 253.73 588.21 260.18 583.18 C 265.82 578.45 272.33 574.93 279.09 572.09 C 285.55 569.74 292.22 567.88 299.07 567.14 C 314.85 565.28 331.19 566.11 346.45 570.84 C 346.50 582.74 346.42 594.64 346.43 606.53 C 344.44 606.55 342.46 606.57 340.47 606.58 C 338.73 601.54 338.99 595.96 336.57 591.13 C 332.37 582.84 324.40 576.28 315.08 574.86 C 305.40 572.41 295.01 573.83 286.04 578.09 C 275.47 583.70 267.96 593.77 263.73 604.80 C 257.73 621.82 257.62 641.32 264.90 657.96 C 269.16 668.69 277.41 677.85 287.79 682.94 C 292.87 685.46 298.53 686.21 304.04 687.20 C 308.02 687.56 312.02 687.58 316.01 687.23 C 317.71 686.79 319.44 686.46 321.19 686.19 C 324.01 685.10 326.79 683.85 329.40 682.30 C 329.45 671.86 329.75 661.40 329.29 650.96 C 328.82 647.11 327.91 642.09 323.59 640.84 C 319.01 640.30 314.39 640.11 309.80 639.63 C 309.84 637.66 309.88 635.71 309.91 633.75 C 327.26 633.07 344.63 634.04 361.99 633.54 C 365.08 629.79 367.98 625.86 371.56 622.56 C 374.61 619.74 378.37 617.88 382.06 616.03 C 386.26 614.43 390.60 613.16 395.07 612.62 C 396.50 612.29 398.22 612.51 399.32 611.35 C 398.95 608.22 398.39 605.13 398.09 602.00 C 394.37 602.90 390.71 603.97 387.08 605.16 C 386.05 605.39 385.03 605.63 384.02 605.89 C 377.45 607.97 370.57 609.02 363.70 609.42 C 363.72 607.51 363.74 605.62 363.74 603.72 C 365.12 602.73 366.50 601.75 367.90 600.79 C 368.92 600.48 369.94 600.17 370.96 599.85 C 379.09 598.27 387.05 595.99 395.09 594.07 C 395.87 593.17 397.68 592.66 397.20 591.12 C 397.04 588.14 397.16 584.93 395.87 582.18 C 393.41 580.13 389.88 580.03 386.94 578.99 C 385.66 578.57 384.39 578.17 383.12 577.79 C 373.66 574.39 366.47 566.77 361.68 558.14 C 358.59 551.82 356.68 544.99 355.69 538.05 C 355.67 536.04 355.73 534.04 356.06 532.07 C 356.32 530.38 356.53 528.68 356.79 526.99 C 359.60 512.98 370.09 501.52 383.06 495.99 M 413.01 503.01 C 408.43 507.78 407.39 514.65 407.20 520.99 C 405.52 527.82 406.87 535.03 406.18 542.01 C 405.63 543.61 405.26 545.29 405.33 547.00 C 405.36 554.67 405.30 562.35 405.30 570.02 C 405.21 572.02 405.79 573.94 406.36 575.84 C 414.66 575.86 423.20 573.37 429.27 567.49 C 433.57 563.97 435.62 558.68 438.18 553.93 C 438.33 553.20 438.62 551.73 438.77 551.00 C 441.52 544.71 440.76 537.70 440.72 531.03 C 440.65 526.05 438.65 521.43 437.00 516.83 C 435.54 514.09 434.02 511.38 432.27 508.82 C 428.70 505.14 424.79 501.06 419.30 500.85 C 417.16 501.39 414.82 501.65 413.01 503.01 M 434.69 574.86 C 425.65 579.53 415.34 580.71 405.35 581.52 C 405.29 584.23 405.26 586.94 405.31 589.66 C 408.18 588.90 411.11 588.45 414.04 587.95 C 418.04 587.13 422.05 588.06 425.94 589.04 C 431.20 590.79 436.42 592.65 441.73 594.25 C 439.44 594.56 437.20 594.43 435.00 593.88 C 429.34 593.03 423.54 592.89 417.86 593.46 C 413.69 594.74 409.69 596.51 405.47 597.64 C 403.77 602.27 403.32 607.72 405.67 612.21 C 412.48 612.69 419.54 613.11 425.83 616.01 C 430.71 618.64 435.43 621.85 438.85 626.29 C 441.84 630.02 443.60 634.53 445.23 638.98 C 446.34 644.93 446.81 650.96 446.23 657.02 C 445.70 658.67 445.41 660.38 445.16 662.11 C 444.65 663.41 444.16 664.73 443.63 666.04 C 443.51 666.64 443.26 667.84 443.14 668.43 C 439.89 675.56 435.26 682.27 428.38 686.33 C 429.94 686.35 431.50 686.36 433.06 686.37 C 439.38 684.08 444.66 679.50 447.45 673.35 C 447.57 672.25 447.70 671.17 447.85 670.10 C 449.29 665.89 448.29 661.34 448.89 657.01 C 449.33 655.69 449.56 654.34 449.59 652.97 C 449.62 633.00 449.77 613.01 449.52 593.04 C 448.12 584.03 449.16 574.85 447.28 565.89 C 442.02 567.21 439.39 572.57 434.69 574.86 M 386.66 622.58 C 380.69 626.92 376.52 633.78 376.27 641.24 C 376.06 641.59 375.63 642.30 375.42 642.66 C 375.46 649.10 375.07 655.56 375.53 662.00 C 376.56 668.23 378.54 674.45 382.35 679.57 C 384.54 682.50 387.77 684.38 390.84 686.27 C 391.40 686.41 392.51 686.70 393.06 686.84 C 395.03 687.39 397.05 687.69 399.05 688.13 C 401.33 688.32 403.64 688.36 405.90 687.95 C 407.30 687.71 408.72 687.53 410.14 687.35 C 414.52 685.61 419.13 683.53 421.83 679.47 C 424.74 675.56 426.12 670.81 427.21 666.13 C 427.57 663.09 428.01 660.05 427.91 656.98 C 428.32 655.00 428.33 652.97 427.87 651.01 C 427.90 644.95 427.19 638.82 425.00 633.13 C 424.60 632.16 424.21 631.21 423.81 630.26 C 421.70 627.39 419.79 624.15 416.59 622.36 C 413.22 620.14 409.25 619.17 405.28 618.78 C 405.25 631.08 405.23 643.37 405.30 655.66 C 404.46 655.70 403.63 655.75 402.81 655.81 C 402.63 651.53 402.85 647.23 402.33 642.98 C 401.14 637.38 401.85 631.63 401.35 625.98 C 400.28 623.83 400.48 621.38 400.33 619.07 C 395.62 619.16 390.32 619.11 386.66 622.58 Z" />
</g>
</svg>
