<?xml version="1.0" encoding="UTF-8" ?>
<!DOCTYPE svg PUBLIC "-//W3C//DTD SVG 1.1//EN" "http://www.w3.org/Graphics/SVG/1.1/DTD/svg11.dtd">
<svg width="598pt" height="299pt" viewBox="0 0 598 299" version="1.1" xmlns="http://www.w3.org/2000/svg">
<g id="#231f20ff">
<path fill="#231f20" opacity="1.00" d=" M 444.64 36.85 C 443.57 27.25 442.99 17.24 445.41 7.82 C 446.93 24.00 449.73 40.57 458.15 54.77 C 466.19 69.00 479.06 79.55 492.04 89.09 C 502.03 96.57 512.20 104.21 519.72 114.31 C 528.72 126.26 532.95 141.19 533.98 155.95 C 535.28 173.88 529.05 192.42 516.27 205.22 C 512.22 209.10 508.07 213.23 502.85 215.47 C 505.63 212.07 509.15 209.36 511.85 205.88 C 519.72 196.48 524.89 184.42 524.32 172.01 C 523.72 157.16 516.69 143.49 508.36 131.52 C 497.75 116.41 484.64 103.30 471.35 90.57 C 456.72 76.35 447.26 57.06 444.64 36.85 Z" />
<path fill="#231f20" opacity="1.00" d=" M 396.38 38.34 C 407.10 30.03 419.89 24.75 432.97 21.49 C 430.31 23.95 426.71 24.90 423.66 26.73 C 405.40 37.03 389.09 52.10 380.54 71.53 C 373.34 87.59 372.57 105.99 376.54 123.00 C 379.03 134.03 383.30 144.59 388.43 154.65 C 390.00 157.83 392.15 160.74 393.26 164.15 C 383.16 154.50 375.99 142.04 371.11 129.03 C 359.27 97.62 369.39 58.77 396.38 38.34 Z" />
<path fill="#231f20" opacity="1.00" d=" M 460.12 28.97 C 460.77 29.52 461.37 30.14 461.92 30.81 C 471.54 46.42 486.89 57.30 502.19 66.84 C 515.53 74.41 529.38 81.17 542.00 89.97 C 555.06 98.97 567.30 109.79 575.43 123.58 C 582.92 136.15 586.07 151.32 583.78 165.81 C 581.67 180.87 575.82 195.97 564.65 206.64 C 553.61 217.48 538.22 222.99 522.97 223.92 C 521.29 223.92 519.62 223.80 517.97 223.57 C 521.79 222.26 525.88 222.10 529.75 220.97 C 542.81 217.40 555.08 210.20 563.75 199.69 C 572.25 189.48 577.06 176.26 576.98 162.96 C 577.09 146.26 570.27 130.05 559.82 117.22 C 547.73 102.35 531.69 91.41 515.46 81.53 C 501.45 72.89 486.41 65.22 475.24 52.83 C 468.90 45.84 463.21 37.95 460.12 28.97 Z" />
<path fill="#231f20" opacity="1.00" d=" M 482.65 38.19 C 499.89 47.84 517.78 56.28 535.87 64.19 C 547.64 69.56 559.24 76.33 567.54 86.46 C 570.58 90.19 572.93 94.52 573.88 99.27 C 563.66 89.14 551.91 80.64 539.28 73.77 C 520.61 63.87 502.01 53.64 485.03 41.01 C 483.98 40.30 483.30 39.23 482.65 38.19 Z" />
<path fill="#231f20" opacity="1.00" d=" M 405.41 96.39 C 418.76 84.53 432.43 72.97 446.91 62.52 C 440.79 77.72 427.18 87.75 415.44 98.42 C 405.79 106.97 400.70 120.13 401.59 132.93 C 402.70 147.55 409.97 161.44 420.56 171.45 C 435.33 185.02 454.06 192.88 471.33 202.63 C 484.80 210.14 498.36 218.88 506.82 232.16 C 515.97 245.73 519.06 263.36 514.08 279.06 C 512.44 275.48 511.56 271.61 509.89 268.04 C 504.19 255.05 494.69 244.10 484.01 234.92 C 466.37 219.71 445.74 208.61 426.96 194.96 C 417.47 187.96 408.21 180.17 401.88 170.09 C 394.28 157.53 389.97 142.73 390.89 128.00 C 391.61 116.18 396.27 104.22 405.41 96.39 Z" />
<path fill="#231f20" opacity="1.00" d=" M 428.03 93.93 C 434.31 89.21 442.98 86.44 450.60 89.38 C 457.53 92.50 464.28 96.59 469.15 102.54 C 466.47 102.74 463.64 103.06 461.11 101.95 C 455.59 99.87 451.74 94.94 446.28 92.80 C 440.23 91.26 434.03 92.96 428.03 93.93 Z" />
<path fill="#231f20" opacity="1.00" d=" M 422.94 104.30 C 426.07 106.73 429.05 109.44 432.82 110.88 C 432.08 108.89 431.33 106.90 430.62 104.90 C 432.77 106.57 434.77 108.67 437.49 109.38 C 443.49 110.70 450.08 109.19 455.72 112.12 C 461.33 115.19 466.18 119.83 469.11 125.55 C 462.36 124.40 458.89 117.69 452.72 115.27 C 451.63 118.30 449.64 121.77 445.98 121.81 C 441.79 122.27 438.79 118.39 438.63 114.51 C 433.81 114.73 428.64 116.01 424.08 113.83 C 421.65 112.75 420.50 110.22 419.33 108.01 C 422.16 110.14 425.24 111.96 428.75 112.69 C 426.22 110.35 424.02 107.63 422.94 104.30 Z" />
<path fill="#231f20" opacity="1.00" d=" M 486.54 122.84 C 490.65 133.39 493.85 144.30 498.13 154.79 C 498.65 156.28 499.29 158.04 498.30 159.49 C 494.96 164.68 488.60 166.63 482.81 167.54 C 485.42 164.26 488.98 161.63 490.78 157.76 C 491.13 153.69 489.12 149.84 488.11 145.96 C 485.59 138.57 484.14 130.47 486.54 122.84 Z" />
<path fill="#231f20" opacity="1.00" d=" M 66.42 243.06 C 69.17 242.00 72.11 242.17 74.90 242.97 C 74.36 243.47 73.29 244.47 72.76 244.98 C 72.79 251.98 72.66 259.00 72.79 266.00 C 72.83 267.98 73.46 270.87 75.95 270.90 C 80.43 271.04 84.97 271.38 89.41 270.55 C 91.69 266.07 90.97 260.91 90.91 256.08 C 90.35 255.01 89.90 253.89 89.56 252.74 C 92.08 252.71 94.60 252.66 97.10 253.00 C 97.26 254.36 96.65 255.21 95.25 255.56 C 95.29 259.39 95.09 263.24 95.36 267.07 C 95.31 268.79 96.87 269.82 97.84 271.03 C 101.91 270.97 105.99 270.88 110.05 271.27 C 111.26 270.41 112.93 269.75 113.06 268.03 C 113.85 263.99 113.42 259.85 113.49 255.76 C 112.14 255.22 111.62 254.28 111.92 252.93 C 114.44 252.61 116.98 252.75 119.51 252.91 C 118.95 253.90 118.38 254.88 117.80 255.86 C 117.37 261.35 119.08 268.29 114.49 272.43 C 108.93 274.04 103.06 274.53 97.32 273.70 C 95.70 273.34 94.38 272.27 92.99 271.44 C 90.81 273.44 87.93 274.15 85.03 273.99 C 80.37 273.83 75.04 274.95 71.05 271.90 C 68.81 269.56 68.49 266.09 68.48 263.01 C 68.48 256.94 68.54 250.88 68.46 244.82 C 67.95 244.38 66.93 243.50 66.42 243.06 Z" />
<path fill="#231f20" opacity="1.00" d=" M 169.34 242.94 C 172.10 242.13 175.14 241.84 177.70 243.42 C 177.17 243.74 176.11 244.38 175.58 244.71 C 175.45 252.12 175.39 259.56 175.62 266.97 C 175.56 269.41 177.68 270.85 179.80 271.36 C 179.27 268.75 179.64 266.15 180.85 263.80 C 181.45 263.61 182.65 263.23 183.25 263.04 C 181.74 261.36 180.03 259.38 180.50 256.94 C 181.59 254.41 184.17 252.39 187.04 252.74 C 190.92 252.92 194.26 255.39 196.12 258.71 C 198.60 258.74 201.08 258.77 203.56 258.86 C 202.99 259.86 202.42 260.85 201.83 261.84 C 201.80 266.46 200.98 271.46 203.49 275.63 C 206.22 276.44 210.11 276.82 211.33 273.54 C 212.93 268.50 211.74 263.13 212.00 257.95 C 212.41 255.83 210.87 254.36 209.66 252.89 C 212.44 252.78 215.25 252.56 218.03 252.94 C 218.31 254.16 217.80 255.09 216.50 255.73 C 216.53 259.45 216.33 263.18 216.63 266.90 C 216.68 268.71 217.92 270.91 219.94 270.93 C 223.95 271.06 227.99 271.19 231.99 270.82 C 235.01 269.48 234.72 265.68 234.77 262.94 C 234.62 256.83 234.98 250.71 234.62 244.62 C 234.10 244.31 233.06 243.68 232.54 243.37 C 235.12 241.89 238.07 242.14 240.83 242.93 C 240.37 243.43 239.46 244.43 239.00 244.94 C 238.81 252.31 239.42 259.73 238.63 267.08 C 238.31 271.36 234.11 274.22 230.01 273.98 C 225.17 273.81 219.84 275.00 215.48 272.31 C 214.35 279.62 204.27 281.57 199.53 276.57 C 196.01 272.03 197.78 266.03 197.00 260.76 C 196.96 264.82 196.08 269.14 192.56 271.64 C 189.89 274.64 185.64 274.00 182.05 274.04 C 178.86 274.09 175.20 273.69 173.04 271.05 C 171.48 268.71 171.26 265.77 171.23 263.03 C 171.23 257.02 171.30 251.02 171.21 245.01 C 170.74 244.49 169.80 243.46 169.34 242.94 M 184.96 259.03 C 187.28 261.25 190.51 262.29 192.66 264.74 C 192.23 261.98 191.54 259.27 190.15 256.84 C 188.34 256.32 186.51 255.85 184.68 255.45 C 184.61 256.63 183.79 258.10 184.96 259.03 M 183.49 270.21 C 185.68 270.55 187.86 270.39 189.85 269.37 C 189.80 266.72 188.07 265.08 185.90 263.92 C 183.97 265.51 182.98 267.69 183.49 270.21 Z" />
<path fill="#231f20" opacity="1.00" d=" M 241.21 242.71 C 243.79 242.12 246.44 242.21 249.01 242.87 C 248.51 243.41 247.51 244.50 247.01 245.04 C 247.05 252.06 246.90 259.08 247.04 266.09 C 247.03 268.31 248.08 271.29 250.83 270.94 C 258.19 270.93 265.62 271.26 272.94 270.83 C 277.84 267.59 275.01 260.48 275.75 255.56 C 274.35 255.21 273.73 254.36 273.90 253.00 C 276.39 252.67 278.91 252.71 281.42 252.73 C 281.11 253.87 280.68 254.96 280.12 256.00 C 280.02 260.93 279.29 266.16 281.52 270.77 C 283.16 270.79 284.80 270.77 286.45 270.70 C 288.62 265.88 287.49 260.52 287.77 255.43 C 287.03 254.60 286.31 253.77 285.58 252.94 C 288.54 252.70 291.51 252.70 294.46 252.96 C 293.73 253.80 293.00 254.63 292.27 255.46 C 292.08 259.60 291.64 263.81 292.43 267.92 C 292.79 269.94 294.92 271.51 296.97 270.94 C 299.04 270.97 299.57 268.70 299.84 267.08 C 300.20 263.33 299.94 259.55 300.00 255.78 C 299.54 255.30 298.61 254.33 298.15 253.84 C 300.12 252.07 302.90 252.92 305.28 252.71 C 303.01 259.05 305.83 266.26 302.10 272.21 C 298.30 274.43 293.26 274.85 290.01 271.43 C 286.65 274.64 281.34 274.76 278.01 271.44 C 276.19 272.66 274.25 273.94 271.97 273.88 C 264.95 274.10 257.91 274.04 250.89 273.94 C 246.66 273.98 242.97 270.23 242.89 266.03 C 242.49 259.68 242.91 253.31 242.75 246.96 C 242.94 245.33 242.06 243.99 241.21 242.71 Z" />
<path fill="#231f20" opacity="1.00" d=" M 120.39 249.67 C 119.51 246.82 123.96 244.69 125.46 247.38 C 126.99 249.20 125.14 251.02 123.94 252.35 C 122.64 251.64 120.72 251.40 120.39 249.67 Z" />
<path fill="#231f20" opacity="1.00" d=" M 206.17 246.29 C 209.71 245.15 211.44 250.79 207.90 251.88 C 204.39 253.01 202.72 247.34 206.17 246.29 Z" />
<path fill="#231f20" opacity="1.00" d=" M 399.22 249.10 C 400.29 246.76 402.37 245.57 404.83 246.67 C 406.86 245.86 409.94 246.23 410.06 248.97 C 409.95 251.86 406.81 252.37 404.65 251.39 C 402.27 252.70 400.50 250.99 399.22 249.10 Z" />
<path fill="#231f20" opacity="1.00" d=" M 478.39 246.38 C 480.43 245.41 481.58 247.88 482.76 249.05 C 481.63 250.00 480.83 252.36 479.03 251.91 C 476.13 251.93 475.49 246.99 478.39 246.38 Z" />
<path fill="#231f20" opacity="1.00" d=" M 156.03 252.64 C 159.09 252.60 161.78 251.05 164.43 249.69 C 163.03 253.30 160.31 257.11 156.01 257.05 C 153.24 257.66 148.57 256.01 147.87 259.94 C 148.70 260.94 149.74 261.93 151.10 262.11 C 155.90 262.74 161.04 261.33 165.59 263.44 C 168.33 264.46 170.10 268.00 168.78 270.73 C 167.64 273.77 163.76 273.96 161.00 274.02 C 154.40 273.86 147.78 274.30 141.20 273.77 C 134.52 272.76 130.56 265.06 132.94 258.87 C 134.35 258.84 135.76 258.82 137.17 258.80 C 136.92 262.10 136.03 265.89 138.19 268.77 C 139.67 271.01 142.59 271.06 144.99 271.03 C 150.69 270.95 156.38 271.07 162.08 270.98 C 163.95 271.23 165.33 269.86 166.74 268.89 C 165.77 268.12 165.15 266.71 163.86 266.45 C 159.31 265.78 154.64 266.86 150.14 265.80 C 146.16 264.82 143.64 259.61 146.14 256.11 C 148.35 253.03 152.62 253.04 156.03 252.64 Z" />
<path fill="#231f20" opacity="1.00" d=" M 58.91 252.94 C 61.28 252.63 63.69 252.62 66.06 252.94 C 66.14 254.04 65.72 255.02 64.80 255.85 C 64.41 261.21 65.90 267.60 62.02 271.99 C 58.24 274.62 53.35 273.85 49.01 274.05 C 46.21 274.23 43.49 273.57 40.95 272.47 C 35.96 274.81 30.37 273.81 25.06 274.01 C 20.89 273.90 16.32 274.64 12.58 272.33 C 8.65 269.85 6.41 264.50 8.04 260.05 C 8.69 258.27 10.79 258.91 12.22 258.61 C 12.43 262.08 10.95 266.42 13.90 269.10 C 15.55 271.35 18.51 270.99 20.96 271.03 C 25.99 270.91 31.03 271.16 36.06 270.93 C 37.55 270.94 38.47 269.50 39.65 268.83 C 38.63 267.82 37.80 266.17 36.10 266.33 C 31.89 266.33 26.98 265.17 23.61 268.46 C 23.47 265.59 26.06 262.84 28.99 263.23 C 32.09 263.29 35.31 262.84 38.31 263.77 C 41.42 264.90 41.88 268.77 44.26 270.63 C 48.46 271.47 52.81 270.65 57.05 271.27 C 58.28 270.41 59.94 269.73 60.07 268.00 C 60.85 263.96 60.42 259.82 60.50 255.74 C 59.13 255.24 58.60 254.31 58.91 252.94 Z" />
<path fill="#231f20" opacity="1.00" d=" M 119.70 252.75 C 121.89 252.76 124.08 252.77 126.28 252.75 C 124.12 259.26 126.05 266.20 124.91 272.84 C 123.78 277.24 118.26 280.79 114.00 278.60 C 111.46 280.72 108.16 278.57 108.82 275.44 C 109.99 274.88 111.16 274.30 112.34 273.74 C 113.98 274.80 116.02 273.33 117.60 274.36 C 118.37 275.09 119.11 275.87 119.81 276.69 C 120.92 273.25 121.17 269.64 121.01 266.05 C 120.79 261.60 121.83 256.89 119.70 252.75 Z" />
<path fill="#231f20" opacity="1.00" d=" M 350.81 259.01 C 350.08 256.21 352.42 253.61 355.00 252.96 C 360.92 251.61 367.40 256.86 367.05 263.00 C 367.16 268.15 363.27 273.21 358.09 273.94 C 353.53 274.13 348.71 274.50 344.52 272.34 C 339.76 274.99 334.17 273.73 329.00 274.01 C 324.26 273.87 318.58 274.92 314.92 271.11 C 311.33 268.17 310.60 263.11 311.95 258.87 C 313.35 258.84 314.76 258.82 316.17 258.80 C 315.91 262.12 315.03 265.93 317.22 268.82 C 318.96 271.32 322.30 271.00 324.97 271.03 C 330.00 270.89 335.05 271.19 340.07 270.90 C 341.96 271.04 344.16 268.21 342.04 267.02 C 338.42 265.47 334.28 266.51 330.46 266.30 C 329.58 267.08 328.70 267.86 327.82 268.64 C 327.31 266.56 328.09 264.01 330.38 263.49 C 334.09 263.05 337.92 263.01 341.62 263.59 C 345.99 264.51 345.38 271.04 350.16 271.36 C 348.96 267.87 350.28 264.40 353.47 262.59 C 352.55 261.44 351.09 260.54 350.81 259.01 M 354.81 255.81 C 354.09 257.41 354.48 259.06 356.07 259.90 C 358.46 261.45 361.14 262.68 362.89 265.02 C 362.36 262.44 362.41 259.46 360.47 257.44 C 359.10 255.80 356.80 255.57 354.81 255.81 M 353.32 269.30 C 355.33 270.67 357.68 270.56 359.88 269.71 C 360.02 267.33 359.03 265.07 356.64 264.29 C 354.05 264.15 353.82 267.48 353.32 269.30 Z" />
<path fill="#231f20" opacity="1.00" d=" M 366.85 255.21 C 367.73 253.83 369.09 252.32 370.93 252.72 C 377.07 252.72 382.65 258.81 381.24 264.99 C 380.49 271.46 372.88 275.76 366.92 273.22 C 367.55 268.84 372.54 272.37 374.77 269.73 C 378.17 266.16 377.67 259.34 373.51 256.54 C 371.44 255.53 369.05 255.67 366.85 255.21 Z" />
<path fill="#231f20" opacity="1.00" d=" M 416.91 253.00 C 419.40 252.67 421.92 252.71 424.43 252.73 C 424.10 253.87 423.67 254.97 423.12 256.02 C 423.32 260.68 421.76 266.23 424.77 270.24 C 428.90 271.94 433.69 270.42 438.05 271.27 C 439.24 270.41 440.91 269.77 441.05 268.08 C 441.85 264.03 441.43 259.88 441.48 255.79 C 440.09 255.17 439.60 254.21 439.99 252.93 C 442.44 252.62 444.90 252.76 447.36 252.84 C 444.04 258.17 447.26 264.89 444.26 270.36 C 442.53 273.67 438.31 273.98 435.01 274.00 C 430.29 273.85 424.80 275.04 421.01 271.44 C 416.55 275.29 410.39 273.69 405.04 274.00 C 400.37 273.80 395.10 274.93 391.04 271.98 C 387.57 269.28 385.87 264.29 387.18 260.07 C 387.54 258.35 389.72 258.58 391.00 258.89 C 392.03 260.79 391.12 262.99 391.36 265.03 C 391.36 267.99 393.78 271.15 396.94 270.96 C 402.64 271.07 408.35 271.00 414.06 270.99 C 416.37 271.36 418.52 269.35 418.61 267.08 C 418.93 263.22 418.69 259.35 418.77 255.48 C 417.31 255.21 416.69 254.38 416.91 253.00 Z" />
<path fill="#231f20" opacity="1.00" d=" M 450.92 255.89 C 455.82 250.60 466.44 252.19 468.73 259.30 C 469.82 262.41 469.14 265.80 470.03 268.95 C 471.20 271.68 475.75 271.70 476.58 268.77 C 477.75 264.58 477.10 260.16 477.26 255.87 C 476.73 255.39 475.67 254.42 475.14 253.93 C 477.42 251.84 480.66 253.00 483.41 252.96 C 482.76 253.78 482.12 254.61 481.48 255.44 C 481.43 261.01 482.28 267.08 479.07 272.01 C 476.04 273.73 472.37 274.80 469.27 272.60 C 467.81 275.09 466.03 279.01 462.48 278.30 C 463.49 276.28 464.46 274.25 465.29 272.15 C 461.14 274.10 455.90 275.05 451.99 272.04 C 446.79 268.46 446.23 260.11 450.92 255.89 M 455.32 256.35 C 451.08 258.82 451.63 265.30 454.08 268.93 C 457.43 273.00 465.31 270.81 464.77 265.07 C 466.21 259.69 460.85 253.42 455.32 256.35 Z" />
<path fill="#231f20" opacity="1.00" d=" M 55.95 276.05 C 56.50 272.27 60.88 274.97 63.25 273.85 C 63.86 274.05 65.08 274.45 65.68 274.65 C 65.75 276.04 65.81 277.44 65.85 278.84 C 64.20 279.29 62.50 279.68 61.00 278.60 C 59.07 280.46 54.90 278.97 55.95 276.05 Z" />
<path fill="#231f20" opacity="1.00" d=" M 90.35 277.53 C 89.62 275.56 91.85 274.33 93.05 273.25 C 93.99 274.35 96.30 275.12 95.93 276.89 C 96.00 279.92 90.94 280.55 90.35 277.53 Z" />
<path fill="#231f20" opacity="1.00" d=" M 440.74 276.09 C 441.46 272.25 446.57 273.74 446.92 277.03 C 445.52 280.24 440.23 280.23 440.74 276.09 Z" />
</g>
<g id="#ec008cff">
<path fill="#ec008c" opacity="1.00" d=" M 6.91 96.07 C 9.08 93.83 12.27 94.60 15.04 94.48 C 20.38 94.60 25.73 94.33 31.06 94.59 C 32.36 94.35 33.93 96.76 32.53 97.56 C 30.86 98.63 28.64 98.14 26.80 98.85 C 24.68 99.57 25.31 102.24 25.01 103.97 C 24.98 128.97 25.01 153.97 25.00 178.97 C 25.25 185.53 25.87 192.59 29.87 198.07 C 32.77 202.30 37.97 204.50 43.00 204.50 C 55.32 204.52 67.65 204.47 79.98 204.52 C 84.94 204.71 90.46 203.84 94.01 200.04 C 99.47 194.93 100.14 186.92 100.69 179.91 C 100.83 168.26 100.72 156.61 100.74 144.96 C 100.83 142.81 100.24 140.75 99.23 138.88 C 97.42 138.72 95.58 138.72 93.84 138.18 C 91.75 137.86 93.22 135.64 93.87 134.69 C 102.25 135.03 110.69 134.31 119.04 135.05 C 121.50 138.37 116.13 138.61 114.04 138.83 C 111.23 139.16 112.11 142.96 111.74 144.97 C 111.75 156.65 111.74 168.34 111.75 180.02 C 111.88 186.78 112.84 194.13 117.58 199.35 C 121.63 203.03 127.43 205.56 132.93 203.96 C 137.95 202.75 142.20 199.00 144.21 194.27 C 146.74 188.55 147.02 182.17 147.24 176.01 C 147.27 165.68 147.24 155.34 147.26 145.01 C 147.17 143.16 147.26 141.22 146.52 139.50 C 144.33 138.16 140.90 138.43 139.41 136.35 L 140.11 134.97 C 148.06 134.49 156.07 134.80 164.04 134.80 C 165.45 134.53 166.94 136.64 165.49 137.63 C 163.70 139.31 160.18 137.60 158.89 140.12 C 157.79 143.29 158.38 146.71 158.26 149.99 C 158.03 161.34 157.66 172.73 158.41 184.08 C 158.80 189.64 160.20 195.63 164.49 199.53 C 169.32 204.42 177.28 206.02 183.38 202.56 C 191.36 198.75 193.50 189.14 193.94 181.09 C 194.10 170.05 193.93 159.01 194.02 147.97 C 194.07 145.02 193.72 142.08 192.98 139.22 C 190.59 138.60 187.83 138.72 185.85 137.04 C 185.93 134.27 189.08 134.80 190.99 134.72 C 197.97 134.89 204.98 134.50 211.95 134.92 C 212.36 135.44 213.19 136.49 213.60 137.02 C 211.24 139.34 206.57 137.42 205.36 141.00 C 205.03 150.66 204.93 160.34 205.00 170.01 C 204.96 178.33 204.73 187.03 208.20 194.79 C 210.75 200.52 216.78 204.44 223.05 204.49 C 236.03 204.53 249.00 204.47 261.98 204.52 C 268.01 204.65 274.20 201.45 277.02 196.01 C 279.76 190.82 280.55 184.85 280.74 179.06 C 280.77 167.71 280.72 156.36 280.77 145.01 C 280.74 142.92 280.75 140.40 278.91 138.99 C 276.65 138.34 273.90 138.94 272.23 136.91 C 272.70 136.37 273.62 135.29 274.09 134.74 C 281.77 134.73 289.46 134.82 297.14 134.69 C 297.78 135.65 299.20 137.76 297.14 138.09 C 295.57 138.61 293.97 139.03 292.39 139.50 C 291.35 143.93 291.84 148.49 291.75 153.00 C 291.63 165.35 292.38 177.89 289.71 190.06 C 287.98 198.15 281.97 205.19 274.21 208.08 C 269.72 209.85 264.87 210.65 260.05 210.52 C 247.35 210.43 234.66 210.60 221.96 210.44 C 213.41 209.67 203.76 206.26 199.59 198.17 C 190.42 215.14 161.90 214.80 152.50 198.18 C 143.16 214.32 115.66 215.03 106.21 198.51 C 100.86 206.42 91.35 210.46 81.99 210.51 C 69.64 210.51 57.29 210.48 44.95 210.52 C 36.88 210.61 28.53 208.03 22.56 202.46 C 15.23 194.58 14.54 183.23 14.04 173.04 C 13.95 151.02 14.02 128.99 14.00 106.96 C 13.99 104.33 13.68 101.70 13.11 99.13 C 10.80 98.65 8.49 97.95 6.91 96.07 Z" />
<path fill="#ec008c" opacity="1.00" d=" M 283.44 109.55 C 289.49 107.05 296.38 113.91 294.25 120.01 C 292.99 126.01 284.37 128.12 280.39 123.54 C 276.04 119.56 277.77 111.33 283.44 109.55 Z" />
<path fill="#ec008c" opacity="1.00" d=" M 312.18 149.23 C 326.67 130.22 358.64 129.80 374.29 147.53 C 381.70 156.21 381.90 168.17 382.26 178.98 C 382.12 189.20 382.81 199.62 380.39 209.63 C 377.84 217.08 372.49 223.49 366.05 227.93 C 363.84 229.59 361.04 229.88 358.47 228.94 C 360.46 226.08 363.72 224.43 365.54 221.44 C 370.34 214.64 370.63 206.03 371.57 198.07 C 367.22 204.23 359.95 207.58 352.85 209.47 C 340.80 212.07 327.16 210.28 317.47 202.20 C 302.46 189.47 299.90 164.67 312.18 149.23 M 336.19 141.14 C 326.74 142.75 319.31 150.95 317.56 160.22 C 315.26 171.83 316.50 185.07 324.18 194.55 C 333.16 206.41 353.66 208.31 363.48 196.51 C 369.84 189.03 370.74 178.54 370.12 169.13 C 369.49 159.44 364.92 149.67 356.58 144.33 C 350.62 140.40 343.06 139.73 336.19 141.14 Z" />
<path fill="#ec008c" opacity="1.00" d=" M 462.36 182.78 C 460.92 179.50 458.88 176.55 456.92 173.58 C 461.68 175.11 466.78 176.39 471.78 175.30 C 475.47 174.63 479.19 173.14 482.99 173.89 C 486.12 174.58 488.54 178.61 486.69 181.52 C 485.64 183.46 483.53 184.35 481.69 185.34 C 482.81 188.05 483.21 191.61 480.65 193.67 C 477.32 196.15 472.71 194.51 469.44 192.71 C 465.49 190.82 464.12 186.44 462.36 182.78 Z" />
</g>
</svg>
