<?xml version="1.0" encoding="UTF-8" ?>
<!DOCTYPE svg PUBLIC "-//W3C//DTD SVG 1.1//EN" "http://www.w3.org/Graphics/SVG/1.1/DTD/svg11.dtd">
<svg width="512pt" height="512pt" viewBox="0 0 512 512" version="1.1" xmlns="http://www.w3.org/2000/svg">
<g id="#231f20ff">
<path fill="#ffffff" opacity="1.00" d=" M 215.72 3.36 L 217.31 3.28 C 217.97 27.60 224.56 52.35 238.74 72.38 C 244.54 80.43 251.29 87.80 258.88 94.20 C 274.88 108.28 293.60 119.16 308.19 134.85 C 316.41 143.44 322.86 153.69 327.07 164.81 C 334.08 184.25 336.88 205.76 331.81 226.01 C 327.52 243.88 316.92 260.08 302.48 271.41 C 299.51 273.70 296.67 276.32 293.07 277.61 C 294.44 275.20 296.59 273.44 298.57 271.57 C 310.94 259.58 320.16 243.52 321.31 226.07 C 322.40 208.84 316.04 192.10 307.46 177.46 C 294.37 155.37 276.54 136.59 258.29 118.72 C 245.99 107.78 235.22 94.93 227.83 80.15 C 215.74 56.68 212.02 29.38 215.72 3.36 Z" />
<path fill="#ffffff" opacity="1.00" d=" M 190.00 22.75 C 193.08 21.79 196.08 20.49 199.33 20.25 C 197.21 23.09 193.39 23.57 190.50 25.34 C 166.55 38.16 145.04 57.01 132.64 81.50 C 123.28 99.96 119.83 121.33 122.73 141.80 C 125.78 165.64 135.23 188.31 147.61 208.76 C 147.09 208.67 146.05 208.50 145.53 208.42 C 131.56 192.83 120.67 174.36 114.99 154.15 C 109.58 135.72 110.24 115.86 115.16 97.40 C 120.15 78.27 130.63 60.52 145.41 47.33 C 158.06 35.75 173.71 27.84 190.00 22.75 Z" />
<path fill="#ffffff" opacity="1.00" d=" M 236.26 29.90 C 237.25 30.76 238.24 31.66 238.92 32.82 C 245.04 43.40 253.94 52.02 263.16 59.89 C 274.54 69.17 286.72 77.50 299.63 84.49 C 326.26 98.69 353.43 113.43 374.31 135.68 C 387.88 150.04 398.09 168.14 400.62 187.93 C 402.74 199.60 400.77 211.49 398.22 222.92 C 393.89 241.67 384.10 259.72 368.54 271.44 C 354.99 282.02 337.99 287.31 321.02 288.77 C 318.54 288.92 316.06 288.83 313.60 288.56 C 314.97 287.59 316.62 287.23 318.25 286.94 C 336.06 284.50 353.07 276.48 366.40 264.42 C 381.59 250.61 390.80 230.54 391.41 210.03 C 391.84 193.11 386.97 176.26 378.57 161.64 C 370.12 146.92 358.09 134.59 344.99 123.94 C 329.45 111.36 312.17 101.19 295.07 90.92 C 286.22 85.57 277.30 80.26 269.25 73.74 C 257.85 64.41 247.76 53.28 240.70 40.28 C 238.96 36.95 236.84 33.69 236.26 29.90 Z" />
<path fill="#ffffff" opacity="1.00" d=" M 266.58 44.08 C 266.56 43.40 266.53 42.72 266.51 42.04 C 269.36 43.78 272.17 45.59 275.14 47.12 C 294.66 57.56 314.71 67.01 334.99 75.87 C 349.59 82.35 363.90 90.36 375.05 101.98 C 380.83 107.68 384.96 114.83 387.49 122.51 C 387.04 122.50 386.15 122.47 385.71 122.46 C 376.89 112.35 365.71 104.61 354.57 97.28 C 344.54 90.71 333.72 85.50 323.25 79.68 C 303.63 69.04 284.56 57.33 266.58 44.08 Z" />
<path fill="#ffffff" opacity="1.00" d=" M 216.55 75.40 C 217.08 75.37 218.15 75.33 218.68 75.31 C 215.34 80.98 212.33 86.90 208.04 91.94 C 198.88 103.78 186.72 112.68 175.93 122.89 C 168.57 129.62 163.21 138.45 160.47 148.02 C 156.61 161.61 157.96 176.47 163.33 189.47 C 168.70 202.68 177.27 214.60 188.46 223.49 C 217.04 246.72 253.67 257.36 281.84 281.20 C 296.15 293.67 307.19 310.85 309.83 329.87 C 309.94 329.43 310.17 328.54 310.29 328.10 C 310.47 335.42 311.06 342.77 310.36 350.08 C 309.89 353.84 308.89 357.51 308.17 361.23 C 307.81 360.99 307.09 360.50 306.73 360.26 C 301.39 340.31 288.90 323.01 274.00 309.01 C 250.14 286.65 221.10 271.10 194.60 252.24 C 181.83 243.03 169.29 232.93 160.30 219.83 C 151.67 206.71 146.14 191.53 144.41 175.91 C 144.11 166.98 143.59 157.85 145.97 149.14 C 148.40 138.70 153.50 128.72 161.37 121.34 C 178.88 105.00 197.80 90.27 216.55 75.40 Z" />
<path fill="#ffffff" opacity="1.00" d=" M 203.01 110.83 C 209.52 108.24 217.15 107.25 223.70 110.25 C 231.44 113.68 238.78 118.19 244.95 124.03 C 246.05 125.04 246.81 126.28 247.21 127.75 C 243.12 127.92 238.78 127.97 235.15 125.78 C 227.82 122.30 222.46 114.86 214.03 113.82 C 207.23 113.20 200.46 114.83 193.90 116.47 C 196.00 113.36 199.73 112.23 203.01 110.83 Z" />
<path fill="#ffffff" opacity="1.00" d=" M 186.59 130.58 C 187.00 130.59 187.83 130.61 188.24 130.61 C 191.43 134.19 195.41 136.96 199.91 138.63 C 198.78 136.12 197.55 133.61 197.25 130.85 C 200.59 133.83 204.21 137.05 208.93 137.33 C 216.19 137.72 223.93 136.95 230.58 140.50 C 237.79 144.53 243.82 150.59 247.99 157.70 C 238.64 157.52 234.72 146.51 225.75 145.02 C 224.72 150.05 220.17 153.91 214.93 153.50 C 212.79 152.18 210.28 151.10 209.00 148.79 C 208.15 147.10 207.86 145.20 207.40 143.38 C 201.65 143.74 195.73 145.27 190.10 143.36 C 186.18 142.34 183.29 138.90 182.31 135.05 C 185.84 137.64 189.49 140.49 194.06 140.66 C 190.97 137.78 188.33 134.46 186.59 130.58 Z" />
<path fill="#ffffff" opacity="1.00" d=" M 270.70 155.24 C 271.04 155.36 271.72 155.60 272.06 155.72 C 273.55 161.76 275.99 167.50 277.94 173.39 C 280.74 181.00 283.03 188.80 286.32 196.23 C 287.27 198.46 288.41 201.35 286.65 203.50 C 282.21 210.34 273.86 212.18 266.59 214.36 C 266.67 213.88 266.76 213.40 266.85 212.92 C 270.13 209.82 273.26 206.52 275.87 202.81 C 277.50 200.70 276.79 197.87 276.33 195.49 C 273.99 186.34 270.05 177.50 269.47 167.97 C 269.14 163.68 270.15 159.47 270.70 155.24 Z" />
<path fill="#ffffff" opacity="1.00" d=" M 77.43 443.04 C 80.13 442.05 82.99 442.09 85.69 443.02 C 83.23 444.59 83.76 447.50 83.72 449.98 C 83.84 455.31 83.62 460.66 83.79 465.99 C 83.81 467.98 84.48 470.89 86.98 470.90 C 91.46 471.08 95.98 471.32 100.42 470.57 C 102.73 465.99 101.86 460.76 102.01 455.83 C 101.54 455.32 100.60 454.29 100.14 453.78 C 102.55 451.93 105.71 452.97 108.47 452.96 C 108.07 454.12 107.33 455.02 106.27 455.65 C 106.27 459.44 106.09 463.24 106.36 467.03 C 106.30 468.73 107.61 470.06 109.01 470.82 C 113.02 471.24 117.08 470.79 121.09 471.26 C 122.28 470.40 123.92 469.72 124.06 468.04 C 124.85 464.02 124.43 459.90 124.47 455.84 C 123.26 455.28 121.46 452.73 124.04 452.82 C 126.09 452.61 128.15 452.70 130.19 452.94 C 127.26 458.35 130.14 464.88 127.28 470.32 C 125.87 473.55 121.82 472.98 118.98 473.82 C 113.94 474.08 108.20 474.95 103.99 471.47 C 102.04 473.04 99.72 474.12 97.16 473.94 C 92.12 473.79 86.38 475.11 82.02 471.90 C 79.83 469.53 79.49 466.10 79.48 463.02 C 79.48 456.96 79.54 450.89 79.46 444.83 C 78.95 444.38 77.94 443.49 77.43 443.04 Z" />
<path fill="#ffffff" opacity="1.00" d=" M 180.32 442.93 C 183.08 442.10 186.05 441.95 188.67 443.32 C 188.15 443.68 187.11 444.40 186.59 444.76 C 186.44 452.13 186.40 459.52 186.61 466.89 C 186.51 469.36 188.65 470.81 190.77 471.38 C 190.32 468.78 190.60 466.18 191.85 463.85 C 192.37 463.64 193.40 463.22 193.91 463.02 C 192.78 461.14 191.03 459.27 191.50 456.90 C 192.51 454.78 194.49 452.84 196.96 452.75 C 201.21 452.47 205.10 455.07 207.13 458.70 C 209.60 458.74 212.08 458.77 214.56 458.87 C 213.98 459.88 213.39 460.90 212.80 461.91 C 212.81 466.52 212.01 471.47 214.48 475.65 C 217.23 476.42 221.12 476.83 222.34 473.52 C 224.00 467.66 222.65 461.48 222.93 455.48 C 222.13 454.64 221.33 453.80 220.54 452.97 C 222.99 452.80 225.46 452.60 227.92 452.82 C 230.51 452.65 228.67 455.21 227.51 455.76 C 227.54 459.49 227.32 463.23 227.64 466.95 C 227.70 468.74 228.93 470.89 230.92 470.93 C 234.93 471.06 238.98 471.19 242.99 470.81 C 246.01 469.48 245.72 465.68 245.77 462.95 C 245.62 456.85 245.99 450.74 245.61 444.65 C 245.11 444.32 244.13 443.66 243.63 443.32 C 246.13 441.92 248.95 442.19 251.63 442.79 C 250.80 444.04 249.78 445.31 250.00 446.93 C 249.73 453.91 250.57 460.97 249.46 467.90 C 248.82 471.82 244.78 474.14 241.03 473.98 C 236.17 473.83 230.86 474.96 226.47 472.33 C 225.34 479.66 215.18 481.57 210.48 476.52 C 207.04 471.99 208.81 466.05 207.94 460.83 C 208.45 466.36 205.27 471.96 199.96 473.79 C 195.62 474.05 190.99 474.60 186.83 473.09 C 183.54 471.95 182.44 468.26 182.31 465.11 C 182.10 458.40 182.37 451.69 182.20 444.98 C 181.73 444.47 180.79 443.45 180.32 442.93 M 195.36 456.47 C 194.95 457.61 195.42 458.79 196.40 459.47 C 198.78 461.30 201.57 462.57 203.72 464.72 C 203.23 461.98 202.52 459.27 201.14 456.83 C 199.24 456.52 197.01 454.72 195.36 456.47 M 194.51 470.23 C 196.69 470.56 198.86 470.34 200.87 469.37 C 200.82 466.70 199.02 465.09 196.85 463.91 C 194.99 465.56 193.97 467.71 194.51 470.23 Z" />
<path fill="#ffffff" opacity="1.00" d=" M 252.23 442.69 C 254.79 442.16 257.41 442.22 259.96 442.82 C 259.47 443.38 258.51 444.50 258.02 445.05 C 258.03 452.07 257.90 459.09 258.04 466.10 C 258.15 467.96 258.69 470.81 261.04 470.85 C 268.05 471.24 275.08 470.85 282.10 471.07 C 284.25 471.35 286.15 469.63 286.47 467.57 C 287.03 463.61 286.68 459.59 286.75 455.60 C 285.39 455.20 284.77 454.33 284.90 453.00 C 287.41 452.66 289.96 452.71 292.49 452.75 C 292.05 453.86 291.59 454.96 291.12 456.06 C 291.01 460.98 290.32 466.18 292.52 470.78 C 294.16 470.78 295.81 470.75 297.46 470.70 C 299.60 465.88 298.51 460.52 298.76 455.43 C 298.04 454.60 297.32 453.76 296.60 452.93 C 299.54 452.71 302.50 452.72 305.44 452.95 C 304.72 453.78 304.00 454.61 303.28 455.45 C 303.10 459.80 302.52 464.28 303.62 468.56 C 304.49 471.65 309.88 472.04 310.49 468.63 C 311.46 464.53 310.93 460.24 310.88 456.07 C 310.41 454.97 309.95 453.88 309.51 452.78 C 311.76 452.74 314.01 452.74 316.27 452.75 C 313.85 458.94 317.16 466.36 312.96 471.97 C 309.53 474.87 304.19 474.62 301.01 471.46 C 297.61 474.61 292.38 474.74 289.01 471.47 C 287.20 472.61 285.32 473.92 283.08 473.87 C 276.01 474.11 268.93 474.04 261.86 473.94 C 257.62 473.97 253.94 470.19 253.89 465.99 C 253.38 459.03 254.15 452.02 253.56 445.07 C 253.23 444.48 252.57 443.28 252.23 442.69 Z" />
<path fill="#ffffff" opacity="1.00" d=" M 133.31 446.35 C 136.30 444.94 138.65 450.15 135.55 451.52 C 132.29 453.80 129.24 447.33 133.31 446.35 Z" />
<path fill="#ffffff" opacity="1.00" d=" M 217.23 446.30 C 220.81 445.19 222.36 450.85 218.83 451.97 C 215.31 452.86 213.76 447.26 217.23 446.30 Z" />
<path fill="#ffffff" opacity="1.00" d=" M 410.19 449.08 C 411.33 446.81 413.38 445.58 415.84 446.65 C 417.88 445.88 421.00 446.23 421.04 449.02 C 420.93 451.87 417.86 452.30 415.72 451.42 C 413.31 452.66 411.49 451.01 410.19 449.08 Z" />
<path fill="#ffffff" opacity="1.00" d=" M 489.37 446.39 C 491.41 445.38 492.57 447.90 493.77 449.04 C 492.63 449.95 491.83 452.34 490.08 451.92 C 487.16 451.99 486.47 447.03 489.37 446.39 Z" />
<path fill="#ffffff" opacity="1.00" d=" M 168.05 452.52 C 170.74 452.33 173.06 450.82 175.43 449.70 C 174.05 452.91 171.91 456.56 168.04 456.92 C 164.74 457.68 160.20 456.01 158.46 459.87 C 163.37 464.71 170.88 460.41 176.58 463.44 C 180.40 464.69 181.71 470.83 177.92 472.88 C 173.24 474.94 167.94 473.66 163.00 474.00 C 157.63 473.68 151.14 475.36 146.90 471.09 C 143.31 468.15 142.62 463.10 143.94 458.87 C 145.34 458.84 146.75 458.82 148.16 458.81 C 147.95 462.13 147.00 465.93 149.22 468.81 C 150.71 471.04 153.64 471.05 156.03 471.03 C 161.73 470.95 167.43 471.08 173.12 470.98 C 174.97 471.20 176.34 469.85 177.75 468.91 C 176.81 468.13 176.20 466.82 174.98 466.48 C 170.39 465.75 165.65 466.87 161.11 465.79 C 156.87 464.75 154.49 459.01 157.51 455.57 C 160.25 452.81 164.47 453.00 168.05 452.52 Z" />
<path fill="#ffffff" opacity="1.00" d=" M 71.47 455.84 C 70.21 455.24 68.47 452.75 71.10 452.82 C 73.11 452.61 75.14 452.69 77.14 452.94 C 77.08 454.05 76.64 455.04 75.81 455.89 C 75.53 460.68 76.43 465.80 74.30 470.29 C 72.85 473.32 69.09 473.78 66.10 473.95 C 61.36 474.01 56.37 474.62 51.95 472.48 C 46.93 474.80 41.32 473.81 35.98 474.01 C 32.32 473.90 28.47 474.48 24.99 473.05 C 19.64 470.86 16.75 463.75 19.75 458.64 C 20.62 458.69 22.37 458.79 23.24 458.85 C 23.28 461.71 22.56 464.76 23.65 467.51 C 24.83 469.29 26.57 471.15 28.91 470.96 C 33.93 471.11 38.96 470.94 43.98 471.03 C 45.88 470.89 48.36 471.47 49.59 469.57 C 51.32 468.11 48.57 466.14 47.05 466.32 C 42.85 466.30 37.99 465.22 34.62 468.44 C 34.49 465.60 37.04 462.85 39.95 463.23 C 43.05 463.28 46.26 462.85 49.27 463.75 C 52.38 464.85 52.87 468.71 55.23 470.61 C 59.43 471.49 63.82 470.65 68.08 471.26 C 69.28 470.39 70.95 469.72 71.07 468.00 C 71.84 464.00 71.43 459.89 71.47 455.84 Z" />
<path fill="#ffffff" opacity="1.00" d=" M 130.71 452.77 C 132.89 452.75 135.07 452.74 137.26 452.74 C 135.15 459.24 137.03 466.15 135.92 472.79 C 134.82 477.23 129.32 480.73 124.99 478.66 C 122.79 480.39 119.20 478.98 119.75 475.93 C 120.86 475.08 122.06 474.36 123.27 473.65 C 126.00 474.17 128.91 473.78 130.96 476.12 C 132.70 470.58 131.78 464.72 132.04 459.02 C 132.23 456.83 131.48 454.77 130.71 452.77 Z" />
<path fill="#ffffff" opacity="1.00" d=" M 361.81 459.00 C 361.08 456.21 363.43 453.62 365.99 452.96 C 371.90 451.61 378.39 456.84 378.05 462.97 C 378.18 468.16 374.24 473.25 369.03 473.95 C 364.48 474.15 359.71 474.46 355.52 472.36 C 350.75 474.96 345.17 473.74 340.00 474.01 C 335.24 473.87 329.53 474.92 325.88 471.06 C 322.30 468.13 321.63 463.09 322.93 458.87 C 324.34 458.84 325.74 458.82 327.15 458.81 C 326.69 462.78 325.89 468.44 330.34 470.49 C 335.47 471.62 340.84 470.70 346.07 471.03 C 348.76 470.82 352.54 471.87 353.99 468.82 C 354.05 467.15 352.38 466.46 350.98 466.34 C 347.82 466.09 344.64 466.26 341.48 466.30 C 340.58 467.06 339.69 467.83 338.79 468.60 C 337.97 465.85 340.08 462.98 342.98 463.28 C 346.80 463.40 351.12 462.42 354.57 464.52 C 356.86 466.81 357.30 470.93 361.13 471.38 C 359.99 467.86 361.27 464.39 364.50 462.58 C 363.57 461.43 362.07 460.55 361.81 459.00 M 365.45 458.21 C 367.67 461.14 371.69 461.96 373.91 464.97 C 373.33 462.04 373.28 458.44 370.52 456.60 C 368.67 455.46 364.63 454.80 365.45 458.21 M 364.30 469.27 C 366.31 470.66 368.66 470.56 370.88 469.73 C 371.00 467.36 370.06 465.06 367.64 464.30 C 365.08 464.10 364.84 467.49 364.30 469.27 Z" />
<path fill="#ffffff" opacity="1.00" d=" M 377.82 453.93 C 384.78 449.83 394.12 457.35 392.24 465.01 C 391.47 471.49 383.87 475.74 377.91 473.22 C 378.56 468.95 383.51 472.29 385.75 469.76 C 389.03 466.35 388.70 459.97 385.05 456.93 C 382.99 455.04 379.27 456.72 377.82 453.93 Z" />
<path fill="#ffffff" opacity="1.00" d=" M 427.89 453.01 C 430.40 452.66 432.95 452.71 435.48 452.75 C 435.05 453.85 434.60 454.96 434.12 456.06 C 433.97 459.73 433.77 463.45 434.27 467.11 C 434.52 468.65 435.32 470.51 437.04 470.84 C 441.04 471.24 445.09 470.79 449.09 471.26 C 450.28 470.39 451.93 469.71 452.07 468.01 C 452.84 463.99 452.42 459.88 452.48 455.82 C 451.29 455.29 449.44 452.81 451.97 452.84 C 454.01 452.61 456.08 452.67 458.12 452.94 C 458.09 454.05 457.65 455.03 456.81 455.88 C 456.53 460.68 457.44 465.82 455.29 470.30 C 453.59 473.67 449.31 473.98 445.99 474.00 C 441.27 473.87 435.82 475.00 432.01 471.47 C 427.50 475.27 421.36 473.70 415.99 474.00 C 411.31 473.81 406.02 474.93 401.97 471.93 C 398.54 469.21 396.87 464.26 398.19 460.06 C 398.56 458.22 400.67 458.81 402.01 458.79 C 403.14 461.48 401.69 464.53 402.79 467.26 C 403.65 469.28 405.54 471.15 407.90 470.96 C 413.63 471.07 419.37 471.01 425.11 470.99 C 427.39 471.34 429.51 469.34 429.60 467.10 C 429.94 463.24 429.69 459.37 429.77 455.51 C 428.35 455.20 427.72 454.36 427.89 453.01 Z" />
<path fill="#ffffff" opacity="1.00" d=" M 461.92 455.88 C 466.81 450.61 477.38 452.18 479.70 459.24 C 480.80 462.35 480.18 465.74 481.01 468.91 C 482.17 471.69 486.78 471.71 487.61 468.72 C 488.73 464.53 488.11 460.14 488.26 455.87 C 487.72 455.38 486.66 454.39 486.13 453.90 C 488.45 451.91 491.64 452.98 494.39 452.94 C 493.75 453.77 493.11 454.60 492.48 455.44 C 492.45 461.01 493.25 467.06 490.09 472.01 C 487.04 473.72 483.40 474.79 480.28 472.62 C 478.80 475.11 477.02 478.99 473.48 478.32 C 474.49 476.29 475.46 474.24 476.30 472.14 C 472.14 474.10 466.88 475.06 462.97 472.02 C 457.79 468.43 457.24 460.10 461.92 455.88 M 466.29 456.36 C 462.66 458.33 462.74 463.50 464.01 466.93 C 465.34 471.93 473.74 472.60 475.36 467.48 C 476.10 464.15 476.36 459.99 473.62 457.46 C 471.81 455.37 468.66 455.30 466.29 456.36 Z" />
<path fill="#ffffff" opacity="1.00" d=" M 66.95 476.08 C 67.46 472.31 71.88 474.89 74.25 473.89 C 74.86 474.07 76.06 474.44 76.66 474.63 C 76.75 476.01 76.83 477.40 76.89 478.80 C 75.24 479.25 73.54 479.66 72.00 478.65 C 70.03 480.36 65.92 479.01 66.95 476.08 Z" />
<path fill="#ffffff" opacity="1.00" d=" M 101.37 477.59 C 100.57 475.59 102.84 474.37 104.01 473.23 C 104.94 474.36 107.38 475.16 106.91 476.96 C 106.95 479.91 102.00 480.51 101.37 477.59 Z" />
<path fill="#ffffff" opacity="1.00" d=" M 452.52 474.54 C 453.97 472.98 457.17 473.76 457.32 476.04 C 458.12 478.12 454.98 480.61 453.12 479.08 C 451.46 478.35 451.26 475.72 452.52 474.54 Z" />
</g>
<g id="#ec008cff">
<path fill="#ec008c" opacity="1.00" d=" M 231.80 222.23 C 236.18 223.13 240.45 224.67 244.97 224.69 C 252.69 225.38 260.02 220.67 267.73 222.76 C 270.74 224.33 273.43 228.30 271.76 231.69 C 270.47 234.76 267.35 236.34 264.51 237.71 C 266.31 241.25 266.58 246.49 262.94 248.97 C 259.20 251.77 254.27 250.01 250.43 248.38 C 246.60 246.81 243.48 243.89 241.73 240.14 C 239.15 233.80 236.01 227.65 231.80 222.23 Z" />
<path fill="#ec008c" opacity="1.00" d=" M 68.24 296.22 C 68.67 295.81 69.53 295.00 69.96 294.60 C 77.32 294.41 84.69 294.44 92.05 294.59 C 93.38 294.41 94.86 296.60 93.56 297.56 C 91.50 298.85 88.53 297.85 86.62 299.61 C 85.82 302.33 86.01 305.21 85.98 308.02 C 86.02 331.67 85.99 355.32 86.00 378.97 C 86.26 385.55 86.87 392.66 90.93 398.14 C 93.84 402.32 99.01 404.51 104.02 404.50 C 117.34 404.48 130.66 404.53 143.98 404.48 C 150.03 404.51 155.78 400.91 158.42 395.48 C 160.99 390.06 161.53 383.93 161.74 378.01 C 161.75 366.99 161.76 355.97 161.74 344.95 C 161.82 342.82 161.23 340.77 160.26 338.89 C 158.15 338.34 153.43 339.47 153.78 336.11 C 154.11 335.80 154.77 335.17 155.10 334.86 C 163.39 334.79 171.75 334.42 180.00 335.06 C 182.43 337.75 178.03 338.75 176.08 338.67 C 172.87 338.16 172.88 341.83 172.78 344.02 C 172.70 356.01 172.77 367.99 172.75 379.97 C 172.88 386.77 173.83 394.18 178.63 399.40 C 182.88 403.27 189.09 405.75 194.77 403.72 C 201.36 401.86 205.68 395.59 206.91 389.10 C 209.11 378.21 207.96 367.03 208.25 356.01 C 207.98 350.52 208.92 344.87 207.55 339.51 C 205.20 338.51 202.72 337.89 200.35 336.95 C 200.53 336.46 200.90 335.46 201.09 334.96 C 209.08 334.51 217.11 334.79 225.11 334.81 C 226.96 334.56 227.74 337.16 226.11 338.07 C 223.58 338.67 219.42 338.18 219.43 341.85 C 219.14 355.24 218.65 368.66 219.27 382.06 C 219.56 388.26 220.66 395.12 225.48 399.52 C 230.33 404.44 238.34 406.03 244.45 402.53 C 252.39 398.68 254.50 389.10 254.94 381.08 C 255.10 370.06 254.93 359.05 255.02 348.04 C 255.08 345.06 254.72 342.10 253.98 339.23 C 251.78 338.73 249.49 338.53 247.40 337.63 C 246.01 335.83 248.26 334.44 249.95 334.77 C 257.34 334.75 264.73 334.67 272.12 334.81 C 273.45 334.52 275.00 336.73 273.51 337.60 C 271.46 339.33 267.16 337.62 266.36 341.06 C 265.92 353.36 265.97 365.68 266.02 377.99 C 266.24 383.90 266.83 390.03 269.51 395.40 C 272.16 400.80 277.98 404.40 283.98 404.49 C 296.97 404.53 309.96 404.47 322.95 404.52 C 328.98 404.66 335.18 401.47 338.01 396.03 C 340.76 390.86 341.54 384.89 341.74 379.10 C 341.77 367.72 341.73 356.33 341.77 344.94 C 341.73 342.87 341.75 340.31 339.85 338.98 C 337.61 338.37 334.94 338.87 333.23 336.96 C 333.69 336.41 334.62 335.29 335.09 334.74 C 342.78 334.73 350.47 334.80 358.15 334.70 C 358.80 335.68 360.20 337.79 358.10 338.10 C 356.54 338.62 354.95 339.02 353.39 339.49 C 352.29 344.24 352.87 349.14 352.75 353.97 C 352.64 366.27 353.38 378.79 350.50 390.86 C 349.06 397.02 345.00 402.23 339.86 405.79 C 334.21 409.17 327.55 410.70 321.00 410.52 C 308.34 410.43 295.67 410.59 283.02 410.45 C 274.37 409.73 264.90 406.18 260.48 398.22 C 256.59 406.16 247.54 410.36 239.00 410.62 C 229.15 411.33 218.45 407.13 213.52 398.19 C 204.11 414.30 176.73 415.01 167.20 398.54 C 161.83 406.40 152.38 410.45 143.05 410.51 C 130.68 410.51 118.31 410.48 105.94 410.52 C 98.07 410.63 90.02 408.14 84.03 402.93 C 80.18 399.01 77.78 393.83 76.71 388.48 C 75.21 381.09 74.91 373.52 75.00 366.00 C 75.01 349.02 75.00 332.04 75.00 315.06 C 74.95 309.75 75.34 304.37 74.13 299.15 C 72.03 298.51 69.46 298.32 68.24 296.22 Z" />
<path fill="#ec008c" opacity="1.00" d=" M 344.38 309.58 C 350.79 306.85 357.95 314.62 354.95 320.84 C 353.22 326.28 345.17 327.83 341.43 323.58 C 337.05 319.64 338.73 311.38 344.38 309.58 Z" />
<path fill="#ec008c" opacity="1.00" d=" M 373.71 348.53 C 387.20 331.85 414.24 330.22 430.77 343.23 C 436.98 347.91 440.94 355.30 442.01 362.96 C 443.54 372.57 443.26 382.33 443.24 392.03 C 442.82 399.13 443.15 406.66 439.97 413.22 C 436.68 419.39 431.98 425.08 425.86 428.60 C 423.91 429.94 421.58 429.49 419.46 428.94 C 421.48 426.11 424.69 424.41 426.54 421.44 C 431.36 414.65 431.58 406.05 432.61 398.10 C 427.99 404.40 420.49 407.86 413.08 409.65 C 401.25 411.96 388.00 410.13 378.52 402.24 C 363.22 389.32 360.86 363.95 373.71 348.53 M 397.21 341.14 C 387.77 342.74 380.35 350.90 378.57 360.14 C 376.26 371.78 377.49 385.07 385.20 394.57 C 394.19 406.41 414.65 408.30 424.47 396.52 C 430.84 389.03 431.75 378.52 431.11 369.09 C 430.48 359.43 425.92 349.68 417.61 344.34 C 411.65 340.40 404.08 339.73 397.21 341.14 Z" />
</g>
</svg>
